<?xml version="1.0" encoding="utf-8" standalone="no"?>
<!DOCTYPE svg PUBLIC "-//W3C//DTD SVG 1.1//EN"
  "http://www.w3.org/Graphics/SVG/1.1/DTD/svg11.dtd">
<svg xmlns:xlink="http://www.w3.org/1999/xlink" width="414.46375pt" height="310.86825pt" viewBox="0 0 414.46375 310.86825" xmlns="http://www.w3.org/2000/svg" version="1.1">
 <metadata>
  <rdf:RDF xmlns:dc="http://purl.org/dc/elements/1.1/" xmlns:cc="http://creativecommons.org/ns#" xmlns:rdf="http://www.w3.org/1999/02/22-rdf-syntax-ns#">
   <cc:Work>
    <dc:type rdf:resource="http://purl.org/dc/dcmitype/StillImage"/>
    <dc:date>2022-02-04T16:06:51.751766</dc:date>
    <dc:format>image/svg+xml</dc:format>
    <dc:creator>
     <cc:Agent>
      <dc:title>Matplotlib v3.5.1, https://matplotlib.org/</dc:title>
     </cc:Agent>
    </dc:creator>
   </cc:Work>
  </rdf:RDF>
 </metadata>
 <defs>
  <style type="text/css">*{stroke-linejoin: round; stroke-linecap: butt}</style>
 </defs>
 <g id="figure_1">
  <g id="patch_1">
   <path d="M 0 310.86825 
L 414.46375 310.86825 
L 414.46375 0 
L 0 0 
z
" style="fill: #ffffff"/>
  </g>
  <g id="axes_1">
   <g id="patch_2">
    <path d="M 50.14375 273.312 
L 407.26375 273.312 
L 407.26375 7.2 
L 50.14375 7.2 
z
" style="fill: #ffffff"/>
   </g>
   <g id="patch_3">
    <path d="M 67.459846 273.312 
L 69.077667 273.312 
L 69.077667 271.518792 
L 67.459846 271.518792 
z
" clip-path="url(#p0a1bda7bae)" style="fill: #1f77b4"/>
   </g>
   <g id="patch_4">
    <path d="M 69.077667 273.312 
L 70.695488 273.312 
L 70.695488 270.921057 
L 69.077667 270.921057 
z
" clip-path="url(#p0a1bda7bae)" style="fill: #1f77b4"/>
   </g>
   <g id="patch_5">
    <path d="M 70.695488 273.312 
L 72.313309 273.312 
L 72.313309 270.323321 
L 70.695488 270.323321 
z
" clip-path="url(#p0a1bda7bae)" style="fill: #1f77b4"/>
   </g>
   <g id="patch_6">
    <path d="M 72.313309 273.312 
L 73.93113 273.312 
L 73.93113 264.943698 
L 72.313309 264.943698 
z
" clip-path="url(#p0a1bda7bae)" style="fill: #1f77b4"/>
   </g>
   <g id="patch_7">
    <path d="M 73.93113 273.312 
L 75.548951 273.312 
L 75.548951 266.736906 
L 73.93113 266.736906 
z
" clip-path="url(#p0a1bda7bae)" style="fill: #1f77b4"/>
   </g>
   <g id="patch_8">
    <path d="M 75.548951 273.312 
L 77.166772 273.312 
L 77.166772 267.932377 
L 75.548951 267.932377 
z
" clip-path="url(#p0a1bda7bae)" style="fill: #1f77b4"/>
   </g>
   <g id="patch_9">
    <path d="M 77.166772 273.312 
L 78.784593 273.312 
L 78.784593 264.345962 
L 77.166772 264.345962 
z
" clip-path="url(#p0a1bda7bae)" style="fill: #1f77b4"/>
   </g>
   <g id="patch_10">
    <path d="M 78.784593 273.312 
L 80.402414 273.312 
L 80.402414 263.748226 
L 78.784593 263.748226 
z
" clip-path="url(#p0a1bda7bae)" style="fill: #1f77b4"/>
   </g>
   <g id="patch_11">
    <path d="M 80.402414 273.312 
L 82.020235 273.312 
L 82.020235 261.955019 
L 80.402414 261.955019 
z
" clip-path="url(#p0a1bda7bae)" style="fill: #1f77b4"/>
   </g>
   <g id="patch_12">
    <path d="M 82.020235 273.312 
L 83.638056 273.312 
L 83.638056 257.770868 
L 82.020235 257.770868 
z
" clip-path="url(#p0a1bda7bae)" style="fill: #1f77b4"/>
   </g>
   <g id="patch_13">
    <path d="M 83.638056 273.312 
L 85.255877 273.312 
L 85.255877 261.357283 
L 83.638056 261.357283 
z
" clip-path="url(#p0a1bda7bae)" style="fill: #1f77b4"/>
   </g>
   <g id="patch_14">
    <path d="M 85.255877 273.312 
L 86.873698 273.312 
L 86.873698 253.586717 
L 85.255877 253.586717 
z
" clip-path="url(#p0a1bda7bae)" style="fill: #1f77b4"/>
   </g>
   <g id="patch_15">
    <path d="M 86.873698 273.312 
L 88.491519 273.312 
L 88.491519 257.173132 
L 86.873698 257.173132 
z
" clip-path="url(#p0a1bda7bae)" style="fill: #1f77b4"/>
   </g>
   <g id="patch_16">
    <path d="M 88.491519 273.312 
L 90.109339 273.312 
L 90.109339 259.564075 
L 88.491519 259.564075 
z
" clip-path="url(#p0a1bda7bae)" style="fill: #1f77b4"/>
   </g>
   <g id="patch_17">
    <path d="M 90.109339 273.312 
L 91.72716 273.312 
L 91.72716 251.793509 
L 90.109339 251.793509 
z
" clip-path="url(#p0a1bda7bae)" style="fill: #1f77b4"/>
   </g>
   <g id="patch_18">
    <path d="M 91.72716 273.312 
L 93.344981 273.312 
L 93.344981 257.173132 
L 91.72716 257.173132 
z
" clip-path="url(#p0a1bda7bae)" style="fill: #1f77b4"/>
   </g>
   <g id="patch_19">
    <path d="M 93.344981 273.312 
L 94.962802 273.312 
L 94.962802 255.379925 
L 93.344981 255.379925 
z
" clip-path="url(#p0a1bda7bae)" style="fill: #1f77b4"/>
   </g>
   <g id="patch_20">
    <path d="M 94.962802 273.312 
L 96.580623 273.312 
L 96.580623 248.80483 
L 94.962802 248.80483 
z
" clip-path="url(#p0a1bda7bae)" style="fill: #1f77b4"/>
   </g>
   <g id="patch_21">
    <path d="M 96.580623 273.312 
L 98.198444 273.312 
L 98.198444 251.793509 
L 96.580623 251.793509 
z
" clip-path="url(#p0a1bda7bae)" style="fill: #1f77b4"/>
   </g>
   <g id="patch_22">
    <path d="M 98.198444 273.312 
L 99.816265 273.312 
L 99.816265 251.793509 
L 98.198444 251.793509 
z
" clip-path="url(#p0a1bda7bae)" style="fill: #1f77b4"/>
   </g>
   <g id="patch_23">
    <path d="M 99.816265 273.312 
L 101.434086 273.312 
L 101.434086 245.816151 
L 99.816265 245.816151 
z
" clip-path="url(#p0a1bda7bae)" style="fill: #1f77b4"/>
   </g>
   <g id="patch_24">
    <path d="M 101.434086 273.312 
L 103.051907 273.312 
L 103.051907 254.782189 
L 101.434086 254.782189 
z
" clip-path="url(#p0a1bda7bae)" style="fill: #1f77b4"/>
   </g>
   <g id="patch_25">
    <path d="M 103.051907 273.312 
L 104.669728 273.312 
L 104.669728 236.252377 
L 103.051907 236.252377 
z
" clip-path="url(#p0a1bda7bae)" style="fill: #1f77b4"/>
   </g>
   <g id="patch_26">
    <path d="M 104.669728 273.312 
L 106.287549 273.312 
L 106.287549 248.207094 
L 104.669728 248.207094 
z
" clip-path="url(#p0a1bda7bae)" style="fill: #1f77b4"/>
   </g>
   <g id="patch_27">
    <path d="M 106.287549 273.312 
L 107.90537 273.312 
L 107.90537 245.816151 
L 106.287549 245.816151 
z
" clip-path="url(#p0a1bda7bae)" style="fill: #1f77b4"/>
   </g>
   <g id="patch_28">
    <path d="M 107.90537 273.312 
L 109.523191 273.312 
L 109.523191 254.184453 
L 107.90537 254.184453 
z
" clip-path="url(#p0a1bda7bae)" style="fill: #1f77b4"/>
   </g>
   <g id="patch_29">
    <path d="M 109.523191 273.312 
L 111.141012 273.312 
L 111.141012 240.436528 
L 109.523191 240.436528 
z
" clip-path="url(#p0a1bda7bae)" style="fill: #1f77b4"/>
   </g>
   <g id="patch_30">
    <path d="M 111.141012 273.312 
L 112.758833 273.312 
L 112.758833 234.45917 
L 111.141012 234.45917 
z
" clip-path="url(#p0a1bda7bae)" style="fill: #1f77b4"/>
   </g>
   <g id="patch_31">
    <path d="M 112.758833 273.312 
L 114.376654 273.312 
L 114.376654 235.654642 
L 112.758833 235.654642 
z
" clip-path="url(#p0a1bda7bae)" style="fill: #1f77b4"/>
   </g>
   <g id="patch_32">
    <path d="M 114.376654 273.312 
L 115.994475 273.312 
L 115.994475 231.470491 
L 114.376654 231.470491 
z
" clip-path="url(#p0a1bda7bae)" style="fill: #1f77b4"/>
   </g>
   <g id="patch_33">
    <path d="M 115.994475 273.312 
L 117.612296 273.312 
L 117.612296 229.079547 
L 115.994475 229.079547 
z
" clip-path="url(#p0a1bda7bae)" style="fill: #1f77b4"/>
   </g>
   <g id="patch_34">
    <path d="M 117.612296 273.312 
L 119.230117 273.312 
L 119.230117 235.654642 
L 117.612296 235.654642 
z
" clip-path="url(#p0a1bda7bae)" style="fill: #1f77b4"/>
   </g>
   <g id="patch_35">
    <path d="M 119.230117 273.312 
L 120.847938 273.312 
L 120.847938 240.436528 
L 119.230117 240.436528 
z
" clip-path="url(#p0a1bda7bae)" style="fill: #1f77b4"/>
   </g>
   <g id="patch_36">
    <path d="M 120.847938 273.312 
L 122.465758 273.312 
L 122.465758 234.45917 
L 120.847938 234.45917 
z
" clip-path="url(#p0a1bda7bae)" style="fill: #1f77b4"/>
   </g>
   <g id="patch_37">
    <path d="M 122.465758 273.312 
L 124.083579 273.312 
L 124.083579 231.470491 
L 122.465758 231.470491 
z
" clip-path="url(#p0a1bda7bae)" style="fill: #1f77b4"/>
   </g>
   <g id="patch_38">
    <path d="M 124.083579 273.312 
L 125.7014 273.312 
L 125.7014 229.079547 
L 124.083579 229.079547 
z
" clip-path="url(#p0a1bda7bae)" style="fill: #1f77b4"/>
   </g>
   <g id="patch_39">
    <path d="M 125.7014 273.312 
L 127.319221 273.312 
L 127.319221 231.470491 
L 125.7014 231.470491 
z
" clip-path="url(#p0a1bda7bae)" style="fill: #1f77b4"/>
   </g>
   <g id="patch_40">
    <path d="M 127.319221 273.312 
L 128.937042 273.312 
L 128.937042 230.275019 
L 127.319221 230.275019 
z
" clip-path="url(#p0a1bda7bae)" style="fill: #1f77b4"/>
   </g>
   <g id="patch_41">
    <path d="M 128.937042 273.312 
L 130.554863 273.312 
L 130.554863 224.29766 
L 128.937042 224.29766 
z
" clip-path="url(#p0a1bda7bae)" style="fill: #1f77b4"/>
   </g>
   <g id="patch_42">
    <path d="M 130.554863 273.312 
L 132.172684 273.312 
L 132.172684 227.28634 
L 130.554863 227.28634 
z
" clip-path="url(#p0a1bda7bae)" style="fill: #1f77b4"/>
   </g>
   <g id="patch_43">
    <path d="M 132.172684 273.312 
L 133.790505 273.312 
L 133.790505 233.861434 
L 132.172684 233.861434 
z
" clip-path="url(#p0a1bda7bae)" style="fill: #1f77b4"/>
   </g>
   <g id="patch_44">
    <path d="M 133.790505 273.312 
L 135.408326 273.312 
L 135.408326 231.470491 
L 133.790505 231.470491 
z
" clip-path="url(#p0a1bda7bae)" style="fill: #1f77b4"/>
   </g>
   <g id="patch_45">
    <path d="M 135.408326 273.312 
L 137.026147 273.312 
L 137.026147 224.29766 
L 135.408326 224.29766 
z
" clip-path="url(#p0a1bda7bae)" style="fill: #1f77b4"/>
   </g>
   <g id="patch_46">
    <path d="M 137.026147 273.312 
L 138.643968 273.312 
L 138.643968 214.733887 
L 137.026147 214.733887 
z
" clip-path="url(#p0a1bda7bae)" style="fill: #1f77b4"/>
   </g>
   <g id="patch_47">
    <path d="M 138.643968 273.312 
L 140.261789 273.312 
L 140.261789 217.12483 
L 138.643968 217.12483 
z
" clip-path="url(#p0a1bda7bae)" style="fill: #1f77b4"/>
   </g>
   <g id="patch_48">
    <path d="M 140.261789 273.312 
L 141.87961 273.312 
L 141.87961 226.688604 
L 140.261789 226.688604 
z
" clip-path="url(#p0a1bda7bae)" style="fill: #1f77b4"/>
   </g>
   <g id="patch_49">
    <path d="M 141.87961 273.312 
L 143.497431 273.312 
L 143.497431 218.320302 
L 141.87961 218.320302 
z
" clip-path="url(#p0a1bda7bae)" style="fill: #1f77b4"/>
   </g>
   <g id="patch_50">
    <path d="M 143.497431 273.312 
L 145.115252 273.312 
L 145.115252 205.170113 
L 143.497431 205.170113 
z
" clip-path="url(#p0a1bda7bae)" style="fill: #1f77b4"/>
   </g>
   <g id="patch_51">
    <path d="M 145.115252 273.312 
L 146.733073 273.312 
L 146.733073 219.515774 
L 145.115252 219.515774 
z
" clip-path="url(#p0a1bda7bae)" style="fill: #1f77b4"/>
   </g>
   <g id="patch_52">
    <path d="M 146.733073 273.312 
L 148.350894 273.312 
L 148.350894 214.136151 
L 146.733073 214.136151 
z
" clip-path="url(#p0a1bda7bae)" style="fill: #1f77b4"/>
   </g>
   <g id="patch_53">
    <path d="M 148.350894 273.312 
L 149.968715 273.312 
L 149.968715 214.733887 
L 148.350894 214.733887 
z
" clip-path="url(#p0a1bda7bae)" style="fill: #1f77b4"/>
   </g>
   <g id="patch_54">
    <path d="M 149.968715 273.312 
L 151.586536 273.312 
L 151.586536 205.170113 
L 149.968715 205.170113 
z
" clip-path="url(#p0a1bda7bae)" style="fill: #1f77b4"/>
   </g>
   <g id="patch_55">
    <path d="M 151.586536 273.312 
L 153.204356 273.312 
L 153.204356 200.388226 
L 151.586536 200.388226 
z
" clip-path="url(#p0a1bda7bae)" style="fill: #1f77b4"/>
   </g>
   <g id="patch_56">
    <path d="M 153.204356 273.312 
L 154.822177 273.312 
L 154.822177 213.538415 
L 153.204356 213.538415 
z
" clip-path="url(#p0a1bda7bae)" style="fill: #1f77b4"/>
   </g>
   <g id="patch_57">
    <path d="M 154.822177 273.312 
L 156.439998 273.312 
L 156.439998 193.215396 
L 154.822177 193.215396 
z
" clip-path="url(#p0a1bda7bae)" style="fill: #1f77b4"/>
   </g>
   <g id="patch_58">
    <path d="M 156.439998 273.312 
L 158.057819 273.312 
L 158.057819 208.158792 
L 156.439998 208.158792 
z
" clip-path="url(#p0a1bda7bae)" style="fill: #1f77b4"/>
   </g>
   <g id="patch_59">
    <path d="M 158.057819 273.312 
L 159.67564 273.312 
L 159.67564 206.365585 
L 158.057819 206.365585 
z
" clip-path="url(#p0a1bda7bae)" style="fill: #1f77b4"/>
   </g>
   <g id="patch_60">
    <path d="M 159.67564 273.312 
L 161.293461 273.312 
L 161.293461 195.008604 
L 159.67564 195.008604 
z
" clip-path="url(#p0a1bda7bae)" style="fill: #1f77b4"/>
   </g>
   <g id="patch_61">
    <path d="M 161.293461 273.312 
L 162.911282 273.312 
L 162.911282 202.77917 
L 161.293461 202.77917 
z
" clip-path="url(#p0a1bda7bae)" style="fill: #1f77b4"/>
   </g>
   <g id="patch_62">
    <path d="M 162.911282 273.312 
L 164.529103 273.312 
L 164.529103 211.745208 
L 162.911282 211.745208 
z
" clip-path="url(#p0a1bda7bae)" style="fill: #1f77b4"/>
   </g>
   <g id="patch_63">
    <path d="M 164.529103 273.312 
L 166.146924 273.312 
L 166.146924 195.008604 
L 164.529103 195.008604 
z
" clip-path="url(#p0a1bda7bae)" style="fill: #1f77b4"/>
   </g>
   <g id="patch_64">
    <path d="M 166.146924 273.312 
L 167.764745 273.312 
L 167.764745 194.410868 
L 166.146924 194.410868 
z
" clip-path="url(#p0a1bda7bae)" style="fill: #1f77b4"/>
   </g>
   <g id="patch_65">
    <path d="M 167.764745 273.312 
L 169.382566 273.312 
L 169.382566 198.595019 
L 167.764745 198.595019 
z
" clip-path="url(#p0a1bda7bae)" style="fill: #1f77b4"/>
   </g>
   <g id="patch_66">
    <path d="M 169.382566 273.312 
L 171.000387 273.312 
L 171.000387 195.60634 
L 169.382566 195.60634 
z
" clip-path="url(#p0a1bda7bae)" style="fill: #1f77b4"/>
   </g>
   <g id="patch_67">
    <path d="M 171.000387 273.312 
L 172.618208 273.312 
L 172.618208 199.790491 
L 171.000387 199.790491 
z
" clip-path="url(#p0a1bda7bae)" style="fill: #1f77b4"/>
   </g>
   <g id="patch_68">
    <path d="M 172.618208 273.312 
L 174.236029 273.312 
L 174.236029 210.549736 
L 172.618208 210.549736 
z
" clip-path="url(#p0a1bda7bae)" style="fill: #1f77b4"/>
   </g>
   <g id="patch_69">
    <path d="M 174.236029 273.312 
L 175.85385 273.312 
L 175.85385 187.238038 
L 174.236029 187.238038 
z
" clip-path="url(#p0a1bda7bae)" style="fill: #1f77b4"/>
   </g>
   <g id="patch_70">
    <path d="M 175.85385 273.312 
L 177.471671 273.312 
L 177.471671 187.238038 
L 175.85385 187.238038 
z
" clip-path="url(#p0a1bda7bae)" style="fill: #1f77b4"/>
   </g>
   <g id="patch_71">
    <path d="M 177.471671 273.312 
L 179.089492 273.312 
L 179.089492 195.008604 
L 177.471671 195.008604 
z
" clip-path="url(#p0a1bda7bae)" style="fill: #1f77b4"/>
   </g>
   <g id="patch_72">
    <path d="M 179.089492 273.312 
L 180.707313 273.312 
L 180.707313 198.595019 
L 179.089492 198.595019 
z
" clip-path="url(#p0a1bda7bae)" style="fill: #1f77b4"/>
   </g>
   <g id="patch_73">
    <path d="M 180.707313 273.312 
L 182.325134 273.312 
L 182.325134 192.61766 
L 180.707313 192.61766 
z
" clip-path="url(#p0a1bda7bae)" style="fill: #1f77b4"/>
   </g>
   <g id="patch_74">
    <path d="M 182.325134 273.312 
L 183.942954 273.312 
L 183.942954 194.410868 
L 182.325134 194.410868 
z
" clip-path="url(#p0a1bda7bae)" style="fill: #1f77b4"/>
   </g>
   <g id="patch_75">
    <path d="M 183.942954 273.312 
L 185.560775 273.312 
L 185.560775 190.824453 
L 183.942954 190.824453 
z
" clip-path="url(#p0a1bda7bae)" style="fill: #1f77b4"/>
   </g>
   <g id="patch_76">
    <path d="M 185.560775 273.312 
L 187.178596 273.312 
L 187.178596 192.61766 
L 185.560775 192.61766 
z
" clip-path="url(#p0a1bda7bae)" style="fill: #1f77b4"/>
   </g>
   <g id="patch_77">
    <path d="M 187.178596 273.312 
L 188.796417 273.312 
L 188.796417 186.640302 
L 187.178596 186.640302 
z
" clip-path="url(#p0a1bda7bae)" style="fill: #1f77b4"/>
   </g>
   <g id="patch_78">
    <path d="M 188.796417 273.312 
L 190.414238 273.312 
L 190.414238 181.858415 
L 188.796417 181.858415 
z
" clip-path="url(#p0a1bda7bae)" style="fill: #1f77b4"/>
   </g>
   <g id="patch_79">
    <path d="M 190.414238 273.312 
L 192.032059 273.312 
L 192.032059 171.09917 
L 190.414238 171.09917 
z
" clip-path="url(#p0a1bda7bae)" style="fill: #1f77b4"/>
   </g>
   <g id="patch_80">
    <path d="M 192.032059 273.312 
L 193.64988 273.312 
L 193.64988 172.892377 
L 192.032059 172.892377 
z
" clip-path="url(#p0a1bda7bae)" style="fill: #1f77b4"/>
   </g>
   <g id="patch_81">
    <path d="M 193.64988 273.312 
L 195.267701 273.312 
L 195.267701 201.583698 
L 193.64988 201.583698 
z
" clip-path="url(#p0a1bda7bae)" style="fill: #1f77b4"/>
   </g>
   <g id="patch_82">
    <path d="M 195.267701 273.312 
L 196.885522 273.312 
L 196.885522 175.881057 
L 195.267701 175.881057 
z
" clip-path="url(#p0a1bda7bae)" style="fill: #1f77b4"/>
   </g>
   <g id="patch_83">
    <path d="M 196.885522 273.312 
L 198.503343 273.312 
L 198.503343 188.433509 
L 196.885522 188.433509 
z
" clip-path="url(#p0a1bda7bae)" style="fill: #1f77b4"/>
   </g>
   <g id="patch_84">
    <path d="M 198.503343 273.312 
L 200.121164 273.312 
L 200.121164 186.042566 
L 198.503343 186.042566 
z
" clip-path="url(#p0a1bda7bae)" style="fill: #1f77b4"/>
   </g>
   <g id="patch_85">
    <path d="M 200.121164 273.312 
L 201.738985 273.312 
L 201.738985 183.053887 
L 200.121164 183.053887 
z
" clip-path="url(#p0a1bda7bae)" style="fill: #1f77b4"/>
   </g>
   <g id="patch_86">
    <path d="M 201.738985 273.312 
L 203.356806 273.312 
L 203.356806 175.881057 
L 201.738985 175.881057 
z
" clip-path="url(#p0a1bda7bae)" style="fill: #1f77b4"/>
   </g>
   <g id="patch_87">
    <path d="M 203.356806 273.312 
L 204.974627 273.312 
L 204.974627 174.087849 
L 203.356806 174.087849 
z
" clip-path="url(#p0a1bda7bae)" style="fill: #1f77b4"/>
   </g>
   <g id="patch_88">
    <path d="M 204.974627 273.312 
L 206.592448 273.312 
L 206.592448 176.478792 
L 204.974627 176.478792 
z
" clip-path="url(#p0a1bda7bae)" style="fill: #1f77b4"/>
   </g>
   <g id="patch_89">
    <path d="M 206.592448 273.312 
L 208.210269 273.312 
L 208.210269 165.121811 
L 206.592448 165.121811 
z
" clip-path="url(#p0a1bda7bae)" style="fill: #1f77b4"/>
   </g>
   <g id="patch_90">
    <path d="M 208.210269 273.312 
L 209.82809 273.312 
L 209.82809 177.076528 
L 208.210269 177.076528 
z
" clip-path="url(#p0a1bda7bae)" style="fill: #1f77b4"/>
   </g>
   <g id="patch_91">
    <path d="M 209.82809 273.312 
L 211.445911 273.312 
L 211.445911 148.982943 
L 209.82809 148.982943 
z
" clip-path="url(#p0a1bda7bae)" style="fill: #1f77b4"/>
   </g>
   <g id="patch_92">
    <path d="M 211.445911 273.312 
L 213.063732 273.312 
L 213.063732 178.272 
L 211.445911 178.272 
z
" clip-path="url(#p0a1bda7bae)" style="fill: #1f77b4"/>
   </g>
   <g id="patch_93">
    <path d="M 213.063732 273.312 
L 214.681553 273.312 
L 214.681553 166.317283 
L 213.063732 166.317283 
z
" clip-path="url(#p0a1bda7bae)" style="fill: #1f77b4"/>
   </g>
   <g id="patch_94">
    <path d="M 214.681553 273.312 
L 216.299373 273.312 
L 216.299373 153.76483 
L 214.681553 153.76483 
z
" clip-path="url(#p0a1bda7bae)" style="fill: #1f77b4"/>
   </g>
   <g id="patch_95">
    <path d="M 216.299373 273.312 
L 217.917194 273.312 
L 217.917194 157.948981 
L 216.299373 157.948981 
z
" clip-path="url(#p0a1bda7bae)" style="fill: #1f77b4"/>
   </g>
   <g id="patch_96">
    <path d="M 217.917194 273.312 
L 219.535015 273.312 
L 219.535015 160.93766 
L 217.917194 160.93766 
z
" clip-path="url(#p0a1bda7bae)" style="fill: #1f77b4"/>
   </g>
   <g id="patch_97">
    <path d="M 219.535015 273.312 
L 221.152836 273.312 
L 221.152836 169.903698 
L 219.535015 169.903698 
z
" clip-path="url(#p0a1bda7bae)" style="fill: #1f77b4"/>
   </g>
   <g id="patch_98">
    <path d="M 221.152836 273.312 
L 222.770657 273.312 
L 222.770657 157.351245 
L 221.152836 157.351245 
z
" clip-path="url(#p0a1bda7bae)" style="fill: #1f77b4"/>
   </g>
   <g id="patch_99">
    <path d="M 222.770657 273.312 
L 224.388478 273.312 
L 224.388478 163.92634 
L 222.770657 163.92634 
z
" clip-path="url(#p0a1bda7bae)" style="fill: #1f77b4"/>
   </g>
   <g id="patch_100">
    <path d="M 224.388478 273.312 
L 226.006299 273.312 
L 226.006299 160.93766 
L 224.388478 160.93766 
z
" clip-path="url(#p0a1bda7bae)" style="fill: #1f77b4"/>
   </g>
   <g id="patch_101">
    <path d="M 226.006299 273.312 
L 227.62412 273.312 
L 227.62412 140.614642 
L 226.006299 140.614642 
z
" clip-path="url(#p0a1bda7bae)" style="fill: #1f77b4"/>
   </g>
   <g id="patch_102">
    <path d="M 227.62412 273.312 
L 229.241941 273.312 
L 229.241941 160.93766 
L 227.62412 160.93766 
z
" clip-path="url(#p0a1bda7bae)" style="fill: #1f77b4"/>
   </g>
   <g id="patch_103">
    <path d="M 229.241941 273.312 
L 230.859762 273.312 
L 230.859762 164.524075 
L 229.241941 164.524075 
z
" clip-path="url(#p0a1bda7bae)" style="fill: #1f77b4"/>
   </g>
   <g id="patch_104">
    <path d="M 230.859762 273.312 
L 232.477583 273.312 
L 232.477583 150.776151 
L 230.859762 150.776151 
z
" clip-path="url(#p0a1bda7bae)" style="fill: #1f77b4"/>
   </g>
   <g id="patch_105">
    <path d="M 232.477583 273.312 
L 234.095404 273.312 
L 234.095404 145.396528 
L 232.477583 145.396528 
z
" clip-path="url(#p0a1bda7bae)" style="fill: #1f77b4"/>
   </g>
   <g id="patch_106">
    <path d="M 234.095404 273.312 
L 235.713225 273.312 
L 235.713225 144.201057 
L 234.095404 144.201057 
z
" clip-path="url(#p0a1bda7bae)" style="fill: #1f77b4"/>
   </g>
   <g id="patch_107">
    <path d="M 235.713225 273.312 
L 237.331046 273.312 
L 237.331046 156.753509 
L 235.713225 156.753509 
z
" clip-path="url(#p0a1bda7bae)" style="fill: #1f77b4"/>
   </g>
   <g id="patch_108">
    <path d="M 237.331046 273.312 
L 238.948867 273.312 
L 238.948867 153.76483 
L 237.331046 153.76483 
z
" clip-path="url(#p0a1bda7bae)" style="fill: #1f77b4"/>
   </g>
   <g id="patch_109">
    <path d="M 238.948867 273.312 
L 240.566688 273.312 
L 240.566688 140.614642 
L 238.948867 140.614642 
z
" clip-path="url(#p0a1bda7bae)" style="fill: #1f77b4"/>
   </g>
   <g id="patch_110">
    <path d="M 240.566688 273.312 
L 242.184509 273.312 
L 242.184509 142.407849 
L 240.566688 142.407849 
z
" clip-path="url(#p0a1bda7bae)" style="fill: #1f77b4"/>
   </g>
   <g id="patch_111">
    <path d="M 242.184509 273.312 
L 243.80233 273.312 
L 243.80233 150.776151 
L 242.184509 150.776151 
z
" clip-path="url(#p0a1bda7bae)" style="fill: #1f77b4"/>
   </g>
   <g id="patch_112">
    <path d="M 243.80233 273.312 
L 245.420151 273.312 
L 245.420151 165.121811 
L 243.80233 165.121811 
z
" clip-path="url(#p0a1bda7bae)" style="fill: #1f77b4"/>
   </g>
   <g id="patch_113">
    <path d="M 245.420151 273.312 
L 247.037971 273.312 
L 247.037971 118.498415 
L 245.420151 118.498415 
z
" clip-path="url(#p0a1bda7bae)" style="fill: #1f77b4"/>
   </g>
   <g id="patch_114">
    <path d="M 247.037971 273.312 
L 248.655792 273.312 
L 248.655792 143.603321 
L 247.037971 143.603321 
z
" clip-path="url(#p0a1bda7bae)" style="fill: #1f77b4"/>
   </g>
   <g id="patch_115">
    <path d="M 248.655792 273.312 
L 250.273613 273.312 
L 250.273613 147.189736 
L 248.655792 147.189736 
z
" clip-path="url(#p0a1bda7bae)" style="fill: #1f77b4"/>
   </g>
   <g id="patch_116">
    <path d="M 250.273613 273.312 
L 251.891434 273.312 
L 251.891434 140.016906 
L 250.273613 140.016906 
z
" clip-path="url(#p0a1bda7bae)" style="fill: #1f77b4"/>
   </g>
   <g id="patch_117">
    <path d="M 251.891434 273.312 
L 253.509255 273.312 
L 253.509255 142.407849 
L 251.891434 142.407849 
z
" clip-path="url(#p0a1bda7bae)" style="fill: #1f77b4"/>
   </g>
   <g id="patch_118">
    <path d="M 253.509255 273.312 
L 255.127076 273.312 
L 255.127076 143.603321 
L 253.509255 143.603321 
z
" clip-path="url(#p0a1bda7bae)" style="fill: #1f77b4"/>
   </g>
   <g id="patch_119">
    <path d="M 255.127076 273.312 
L 256.744897 273.312 
L 256.744897 140.614642 
L 255.127076 140.614642 
z
" clip-path="url(#p0a1bda7bae)" style="fill: #1f77b4"/>
   </g>
   <g id="patch_120">
    <path d="M 256.744897 273.312 
L 258.362718 273.312 
L 258.362718 144.798792 
L 256.744897 144.798792 
z
" clip-path="url(#p0a1bda7bae)" style="fill: #1f77b4"/>
   </g>
   <g id="patch_121">
    <path d="M 258.362718 273.312 
L 259.980539 273.312 
L 259.980539 127.464453 
L 258.362718 127.464453 
z
" clip-path="url(#p0a1bda7bae)" style="fill: #1f77b4"/>
   </g>
   <g id="patch_122">
    <path d="M 259.980539 273.312 
L 261.59836 273.312 
L 261.59836 138.223698 
L 259.980539 138.223698 
z
" clip-path="url(#p0a1bda7bae)" style="fill: #1f77b4"/>
   </g>
   <g id="patch_123">
    <path d="M 261.59836 273.312 
L 263.216181 273.312 
L 263.216181 125.671245 
L 261.59836 125.671245 
z
" clip-path="url(#p0a1bda7bae)" style="fill: #1f77b4"/>
   </g>
   <g id="patch_124">
    <path d="M 263.216181 273.312 
L 264.834002 273.312 
L 264.834002 134.637283 
L 263.216181 134.637283 
z
" clip-path="url(#p0a1bda7bae)" style="fill: #1f77b4"/>
   </g>
   <g id="patch_125">
    <path d="M 264.834002 273.312 
L 266.451823 273.312 
L 266.451823 132.844075 
L 264.834002 132.844075 
z
" clip-path="url(#p0a1bda7bae)" style="fill: #1f77b4"/>
   </g>
   <g id="patch_126">
    <path d="M 266.451823 273.312 
L 268.069644 273.312 
L 268.069644 129.25766 
L 266.451823 129.25766 
z
" clip-path="url(#p0a1bda7bae)" style="fill: #1f77b4"/>
   </g>
   <g id="patch_127">
    <path d="M 268.069644 273.312 
L 269.687465 273.312 
L 269.687465 122.682566 
L 268.069644 122.682566 
z
" clip-path="url(#p0a1bda7bae)" style="fill: #1f77b4"/>
   </g>
   <g id="patch_128">
    <path d="M 269.687465 273.312 
L 271.305286 273.312 
L 271.305286 105.945962 
L 269.687465 105.945962 
z
" clip-path="url(#p0a1bda7bae)" style="fill: #1f77b4"/>
   </g>
   <g id="patch_129">
    <path d="M 271.305286 273.312 
L 272.923107 273.312 
L 272.923107 107.141434 
L 271.305286 107.141434 
z
" clip-path="url(#p0a1bda7bae)" style="fill: #1f77b4"/>
   </g>
   <g id="patch_130">
    <path d="M 272.923107 273.312 
L 274.540928 273.312 
L 274.540928 119.096151 
L 272.923107 119.096151 
z
" clip-path="url(#p0a1bda7bae)" style="fill: #1f77b4"/>
   </g>
   <g id="patch_131">
    <path d="M 274.540928 273.312 
L 276.158749 273.312 
L 276.158749 119.096151 
L 274.540928 119.096151 
z
" clip-path="url(#p0a1bda7bae)" style="fill: #1f77b4"/>
   </g>
   <g id="patch_132">
    <path d="M 276.158749 273.312 
L 277.776569 273.312 
L 277.776569 102.359547 
L 276.158749 102.359547 
z
" clip-path="url(#p0a1bda7bae)" style="fill: #1f77b4"/>
   </g>
   <g id="patch_133">
    <path d="M 277.776569 273.312 
L 279.39439 273.312 
L 279.39439 113.716528 
L 277.776569 113.716528 
z
" clip-path="url(#p0a1bda7bae)" style="fill: #1f77b4"/>
   </g>
   <g id="patch_134">
    <path d="M 279.39439 273.312 
L 281.012211 273.312 
L 281.012211 117.900679 
L 279.39439 117.900679 
z
" clip-path="url(#p0a1bda7bae)" style="fill: #1f77b4"/>
   </g>
   <g id="patch_135">
    <path d="M 281.012211 273.312 
L 282.630032 273.312 
L 282.630032 114.314264 
L 281.012211 114.314264 
z
" clip-path="url(#p0a1bda7bae)" style="fill: #1f77b4"/>
   </g>
   <g id="patch_136">
    <path d="M 282.630032 273.312 
L 284.247853 273.312 
L 284.247853 97.57766 
L 282.630032 97.57766 
z
" clip-path="url(#p0a1bda7bae)" style="fill: #1f77b4"/>
   </g>
   <g id="patch_137">
    <path d="M 284.247853 273.312 
L 285.865674 273.312 
L 285.865674 109.532377 
L 284.247853 109.532377 
z
" clip-path="url(#p0a1bda7bae)" style="fill: #1f77b4"/>
   </g>
   <g id="patch_138">
    <path d="M 285.865674 273.312 
L 287.483495 273.312 
L 287.483495 113.716528 
L 285.865674 113.716528 
z
" clip-path="url(#p0a1bda7bae)" style="fill: #1f77b4"/>
   </g>
   <g id="patch_139">
    <path d="M 287.483495 273.312 
L 289.101316 273.312 
L 289.101316 114.314264 
L 287.483495 114.314264 
z
" clip-path="url(#p0a1bda7bae)" style="fill: #1f77b4"/>
   </g>
   <g id="patch_140">
    <path d="M 289.101316 273.312 
L 290.719137 273.312 
L 290.719137 102.957283 
L 289.101316 102.957283 
z
" clip-path="url(#p0a1bda7bae)" style="fill: #1f77b4"/>
   </g>
   <g id="patch_141">
    <path d="M 290.719137 273.312 
L 292.336958 273.312 
L 292.336958 114.912 
L 290.719137 114.912 
z
" clip-path="url(#p0a1bda7bae)" style="fill: #1f77b4"/>
   </g>
   <g id="patch_142">
    <path d="M 292.336958 273.312 
L 293.954779 273.312 
L 293.954779 95.784453 
L 292.336958 95.784453 
z
" clip-path="url(#p0a1bda7bae)" style="fill: #1f77b4"/>
   </g>
   <g id="patch_143">
    <path d="M 293.954779 273.312 
L 295.5726 273.312 
L 295.5726 123.878038 
L 293.954779 123.878038 
z
" clip-path="url(#p0a1bda7bae)" style="fill: #1f77b4"/>
   </g>
   <g id="patch_144">
    <path d="M 295.5726 273.312 
L 297.190421 273.312 
L 297.190421 88.611623 
L 295.5726 88.611623 
z
" clip-path="url(#p0a1bda7bae)" style="fill: #1f77b4"/>
   </g>
   <g id="patch_145">
    <path d="M 297.190421 273.312 
L 298.808242 273.312 
L 298.808242 86.220679 
L 297.190421 86.220679 
z
" clip-path="url(#p0a1bda7bae)" style="fill: #1f77b4"/>
   </g>
   <g id="patch_146">
    <path d="M 298.808242 273.312 
L 300.426063 273.312 
L 300.426063 116.107472 
L 298.808242 116.107472 
z
" clip-path="url(#p0a1bda7bae)" style="fill: #1f77b4"/>
   </g>
   <g id="patch_147">
    <path d="M 300.426063 273.312 
L 302.043884 273.312 
L 302.043884 103.555019 
L 300.426063 103.555019 
z
" clip-path="url(#p0a1bda7bae)" style="fill: #1f77b4"/>
   </g>
   <g id="patch_148">
    <path d="M 302.043884 273.312 
L 303.661705 273.312 
L 303.661705 102.359547 
L 302.043884 102.359547 
z
" clip-path="url(#p0a1bda7bae)" style="fill: #1f77b4"/>
   </g>
   <g id="patch_149">
    <path d="M 303.661705 273.312 
L 305.279526 273.312 
L 305.279526 116.107472 
L 303.661705 116.107472 
z
" clip-path="url(#p0a1bda7bae)" style="fill: #1f77b4"/>
   </g>
   <g id="patch_150">
    <path d="M 305.279526 273.312 
L 306.897347 273.312 
L 306.897347 104.152755 
L 305.279526 104.152755 
z
" clip-path="url(#p0a1bda7bae)" style="fill: #1f77b4"/>
   </g>
   <g id="patch_151">
    <path d="M 306.897347 273.312 
L 308.515168 273.312 
L 308.515168 111.923321 
L 306.897347 111.923321 
z
" clip-path="url(#p0a1bda7bae)" style="fill: #1f77b4"/>
   </g>
   <g id="patch_152">
    <path d="M 308.515168 273.312 
L 310.132988 273.312 
L 310.132988 81.438792 
L 308.515168 81.438792 
z
" clip-path="url(#p0a1bda7bae)" style="fill: #1f77b4"/>
   </g>
   <g id="patch_153">
    <path d="M 310.132988 273.312 
L 311.750809 273.312 
L 311.750809 100.56634 
L 310.132988 100.56634 
z
" clip-path="url(#p0a1bda7bae)" style="fill: #1f77b4"/>
   </g>
   <g id="patch_154">
    <path d="M 311.750809 273.312 
L 313.36863 273.312 
L 313.36863 98.773132 
L 311.750809 98.773132 
z
" clip-path="url(#p0a1bda7bae)" style="fill: #1f77b4"/>
   </g>
   <g id="patch_155">
    <path d="M 313.36863 273.312 
L 314.986451 273.312 
L 314.986451 92.198038 
L 313.36863 92.198038 
z
" clip-path="url(#p0a1bda7bae)" style="fill: #1f77b4"/>
   </g>
   <g id="patch_156">
    <path d="M 314.986451 273.312 
L 316.604272 273.312 
L 316.604272 106.543698 
L 314.986451 106.543698 
z
" clip-path="url(#p0a1bda7bae)" style="fill: #1f77b4"/>
   </g>
   <g id="patch_157">
    <path d="M 316.604272 273.312 
L 318.222093 273.312 
L 318.222093 93.393509 
L 316.604272 93.393509 
z
" clip-path="url(#p0a1bda7bae)" style="fill: #1f77b4"/>
   </g>
   <g id="patch_158">
    <path d="M 318.222093 273.312 
L 319.839914 273.312 
L 319.839914 73.668226 
L 318.222093 73.668226 
z
" clip-path="url(#p0a1bda7bae)" style="fill: #1f77b4"/>
   </g>
   <g id="patch_159">
    <path d="M 319.839914 273.312 
L 321.457735 273.312 
L 321.457735 107.73917 
L 319.839914 107.73917 
z
" clip-path="url(#p0a1bda7bae)" style="fill: #1f77b4"/>
   </g>
   <g id="patch_160">
    <path d="M 321.457735 273.312 
L 323.075556 273.312 
L 323.075556 74.265962 
L 321.457735 74.265962 
z
" clip-path="url(#p0a1bda7bae)" style="fill: #1f77b4"/>
   </g>
   <g id="patch_161">
    <path d="M 323.075556 273.312 
L 324.693377 273.312 
L 324.693377 92.198038 
L 323.075556 92.198038 
z
" clip-path="url(#p0a1bda7bae)" style="fill: #1f77b4"/>
   </g>
   <g id="patch_162">
    <path d="M 324.693377 273.312 
L 326.311198 273.312 
L 326.311198 83.232 
L 324.693377 83.232 
z
" clip-path="url(#p0a1bda7bae)" style="fill: #1f77b4"/>
   </g>
   <g id="patch_163">
    <path d="M 326.311198 273.312 
L 327.929019 273.312 
L 327.929019 76.656906 
L 326.311198 76.656906 
z
" clip-path="url(#p0a1bda7bae)" style="fill: #1f77b4"/>
   </g>
   <g id="patch_164">
    <path d="M 327.929019 273.312 
L 329.54684 273.312 
L 329.54684 70.081811 
L 327.929019 70.081811 
z
" clip-path="url(#p0a1bda7bae)" style="fill: #1f77b4"/>
   </g>
   <g id="patch_165">
    <path d="M 329.54684 273.312 
L 331.164661 273.312 
L 331.164661 93.991245 
L 329.54684 93.991245 
z
" clip-path="url(#p0a1bda7bae)" style="fill: #1f77b4"/>
   </g>
   <g id="patch_166">
    <path d="M 331.164661 273.312 
L 332.782482 273.312 
L 332.782482 80.841057 
L 331.164661 80.841057 
z
" clip-path="url(#p0a1bda7bae)" style="fill: #1f77b4"/>
   </g>
   <g id="patch_167">
    <path d="M 332.782482 273.312 
L 334.400303 273.312 
L 334.400303 78.450113 
L 332.782482 78.450113 
z
" clip-path="url(#p0a1bda7bae)" style="fill: #1f77b4"/>
   </g>
   <g id="patch_168">
    <path d="M 334.400303 273.312 
L 336.018124 273.312 
L 336.018124 83.232 
L 334.400303 83.232 
z
" clip-path="url(#p0a1bda7bae)" style="fill: #1f77b4"/>
   </g>
   <g id="patch_169">
    <path d="M 336.018124 273.312 
L 337.635945 273.312 
L 337.635945 80.841057 
L 336.018124 80.841057 
z
" clip-path="url(#p0a1bda7bae)" style="fill: #1f77b4"/>
   </g>
   <g id="patch_170">
    <path d="M 337.635945 273.312 
L 339.253766 273.312 
L 339.253766 68.288604 
L 337.635945 68.288604 
z
" clip-path="url(#p0a1bda7bae)" style="fill: #1f77b4"/>
   </g>
   <g id="patch_171">
    <path d="M 339.253766 273.312 
L 340.871586 273.312 
L 340.871586 50.356528 
L 339.253766 50.356528 
z
" clip-path="url(#p0a1bda7bae)" style="fill: #1f77b4"/>
   </g>
   <g id="patch_172">
    <path d="M 340.871586 273.312 
L 342.489407 273.312 
L 342.489407 86.220679 
L 340.871586 86.220679 
z
" clip-path="url(#p0a1bda7bae)" style="fill: #1f77b4"/>
   </g>
   <g id="patch_173">
    <path d="M 342.489407 273.312 
L 344.107228 273.312 
L 344.107228 76.656906 
L 342.489407 76.656906 
z
" clip-path="url(#p0a1bda7bae)" style="fill: #1f77b4"/>
   </g>
   <g id="patch_174">
    <path d="M 344.107228 273.312 
L 345.725049 273.312 
L 345.725049 69.484075 
L 344.107228 69.484075 
z
" clip-path="url(#p0a1bda7bae)" style="fill: #1f77b4"/>
   </g>
   <g id="patch_175">
    <path d="M 345.725049 273.312 
L 347.34287 273.312 
L 347.34287 73.070491 
L 345.725049 73.070491 
z
" clip-path="url(#p0a1bda7bae)" style="fill: #1f77b4"/>
   </g>
   <g id="patch_176">
    <path d="M 347.34287 273.312 
L 348.960691 273.312 
L 348.960691 45.574642 
L 347.34287 45.574642 
z
" clip-path="url(#p0a1bda7bae)" style="fill: #1f77b4"/>
   </g>
   <g id="patch_177">
    <path d="M 348.960691 273.312 
L 350.578512 273.312 
L 350.578512 48.563321 
L 348.960691 48.563321 
z
" clip-path="url(#p0a1bda7bae)" style="fill: #1f77b4"/>
   </g>
   <g id="patch_178">
    <path d="M 350.578512 273.312 
L 352.196333 273.312 
L 352.196333 68.288604 
L 350.578512 68.288604 
z
" clip-path="url(#p0a1bda7bae)" style="fill: #1f77b4"/>
   </g>
   <g id="patch_179">
    <path d="M 352.196333 273.312 
L 353.814154 273.312 
L 353.814154 53.345208 
L 352.196333 53.345208 
z
" clip-path="url(#p0a1bda7bae)" style="fill: #1f77b4"/>
   </g>
   <g id="patch_180">
    <path d="M 353.814154 273.312 
L 355.431975 273.312 
L 355.431975 71.277283 
L 353.814154 71.277283 
z
" clip-path="url(#p0a1bda7bae)" style="fill: #1f77b4"/>
   </g>
   <g id="patch_181">
    <path d="M 355.431975 273.312 
L 357.049796 273.312 
L 357.049796 45.574642 
L 355.431975 45.574642 
z
" clip-path="url(#p0a1bda7bae)" style="fill: #1f77b4"/>
   </g>
   <g id="patch_182">
    <path d="M 357.049796 273.312 
L 358.667617 273.312 
L 358.667617 52.747472 
L 357.049796 52.747472 
z
" clip-path="url(#p0a1bda7bae)" style="fill: #1f77b4"/>
   </g>
   <g id="patch_183">
    <path d="M 358.667617 273.312 
L 360.285438 273.312 
L 360.285438 56.333887 
L 358.667617 56.333887 
z
" clip-path="url(#p0a1bda7bae)" style="fill: #1f77b4"/>
   </g>
   <g id="patch_184">
    <path d="M 360.285438 273.312 
L 361.903259 273.312 
L 361.903259 60.518038 
L 360.285438 60.518038 
z
" clip-path="url(#p0a1bda7bae)" style="fill: #1f77b4"/>
   </g>
   <g id="patch_185">
    <path d="M 361.903259 273.312 
L 363.52108 273.312 
L 363.52108 55.138415 
L 361.903259 55.138415 
z
" clip-path="url(#p0a1bda7bae)" style="fill: #1f77b4"/>
   </g>
   <g id="patch_186">
    <path d="M 363.52108 273.312 
L 365.138901 273.312 
L 365.138901 43.183698 
L 363.52108 43.183698 
z
" clip-path="url(#p0a1bda7bae)" style="fill: #1f77b4"/>
   </g>
   <g id="patch_187">
    <path d="M 365.138901 273.312 
L 366.756722 273.312 
L 366.756722 77.254642 
L 365.138901 77.254642 
z
" clip-path="url(#p0a1bda7bae)" style="fill: #1f77b4"/>
   </g>
   <g id="patch_188">
    <path d="M 366.756722 273.312 
L 368.374543 273.312 
L 368.374543 37.804075 
L 366.756722 37.804075 
z
" clip-path="url(#p0a1bda7bae)" style="fill: #1f77b4"/>
   </g>
   <g id="patch_189">
    <path d="M 368.374543 273.312 
L 369.992364 273.312 
L 369.992364 50.356528 
L 368.374543 50.356528 
z
" clip-path="url(#p0a1bda7bae)" style="fill: #1f77b4"/>
   </g>
   <g id="patch_190">
    <path d="M 369.992364 273.312 
L 371.610184 273.312 
L 371.610184 62.311245 
L 369.992364 62.311245 
z
" clip-path="url(#p0a1bda7bae)" style="fill: #1f77b4"/>
   </g>
   <g id="patch_191">
    <path d="M 371.610184 273.312 
L 373.228005 273.312 
L 373.228005 50.954264 
L 371.610184 50.954264 
z
" clip-path="url(#p0a1bda7bae)" style="fill: #1f77b4"/>
   </g>
   <g id="patch_192">
    <path d="M 373.228005 273.312 
L 374.845826 273.312 
L 374.845826 28.240302 
L 373.228005 28.240302 
z
" clip-path="url(#p0a1bda7bae)" style="fill: #1f77b4"/>
   </g>
   <g id="patch_193">
    <path d="M 374.845826 273.312 
L 376.463647 273.312 
L 376.463647 28.240302 
L 374.845826 28.240302 
z
" clip-path="url(#p0a1bda7bae)" style="fill: #1f77b4"/>
   </g>
   <g id="patch_194">
    <path d="M 376.463647 273.312 
L 378.081468 273.312 
L 378.081468 29.435774 
L 376.463647 29.435774 
z
" clip-path="url(#p0a1bda7bae)" style="fill: #1f77b4"/>
   </g>
   <g id="patch_195">
    <path d="M 378.081468 273.312 
L 379.699289 273.312 
L 379.699289 53.345208 
L 378.081468 53.345208 
z
" clip-path="url(#p0a1bda7bae)" style="fill: #1f77b4"/>
   </g>
   <g id="patch_196">
    <path d="M 379.699289 273.312 
L 381.31711 273.312 
L 381.31711 43.781434 
L 379.699289 43.781434 
z
" clip-path="url(#p0a1bda7bae)" style="fill: #1f77b4"/>
   </g>
   <g id="patch_197">
    <path d="M 381.31711 273.312 
L 382.934931 273.312 
L 382.934931 25.849358 
L 381.31711 25.849358 
z
" clip-path="url(#p0a1bda7bae)" style="fill: #1f77b4"/>
   </g>
   <g id="patch_198">
    <path d="M 382.934931 273.312 
L 384.552752 273.312 
L 384.552752 19.872 
L 382.934931 19.872 
z
" clip-path="url(#p0a1bda7bae)" style="fill: #1f77b4"/>
   </g>
   <g id="patch_199">
    <path d="M 384.552752 273.312 
L 386.170573 273.312 
L 386.170573 28.240302 
L 384.552752 28.240302 
z
" clip-path="url(#p0a1bda7bae)" style="fill: #1f77b4"/>
   </g>
   <g id="patch_200">
    <path d="M 386.170573 273.312 
L 387.788394 273.312 
L 387.788394 34.21766 
L 386.170573 34.21766 
z
" clip-path="url(#p0a1bda7bae)" style="fill: #1f77b4"/>
   </g>
   <g id="patch_201">
    <path d="M 387.788394 273.312 
L 389.406215 273.312 
L 389.406215 43.781434 
L 387.788394 43.781434 
z
" clip-path="url(#p0a1bda7bae)" style="fill: #1f77b4"/>
   </g>
   <g id="patch_202">
    <path d="M 389.406215 273.312 
L 391.024036 273.312 
L 391.024036 25.251623 
L 389.406215 25.251623 
z
" clip-path="url(#p0a1bda7bae)" style="fill: #1f77b4"/>
   </g>
   <g id="matplotlib.axis_1">
    <g id="xtick_1">
     <g id="line2d_1">
      <defs>
       <path id="m4a5e0430c5" d="M 0 0 
L 0 3.5 
" style="stroke: #000000; stroke-width: 0.8"/>
      </defs>
      <g>
       <use xlink:href="#m4a5e0430c5" x="66.376477" y="273.312" style="stroke: #000000; stroke-width: 0.8"/>
      </g>
     </g>
     <g id="text_1">
      <!-- 0.0 -->
      <g transform="translate(58.424915 287.910437)scale(0.1 -0.1)">
       <defs>
        <path id="DejaVuSans-30" d="M 2034 4250 
Q 1547 4250 1301 3770 
Q 1056 3291 1056 2328 
Q 1056 1369 1301 889 
Q 1547 409 2034 409 
Q 2525 409 2770 889 
Q 3016 1369 3016 2328 
Q 3016 3291 2770 3770 
Q 2525 4250 2034 4250 
z
M 2034 4750 
Q 2819 4750 3233 4129 
Q 3647 3509 3647 2328 
Q 3647 1150 3233 529 
Q 2819 -91 2034 -91 
Q 1250 -91 836 529 
Q 422 1150 422 2328 
Q 422 3509 836 4129 
Q 1250 4750 2034 4750 
z
" transform="scale(0.015625)"/>
        <path id="DejaVuSans-2e" d="M 684 794 
L 1344 794 
L 1344 0 
L 684 0 
L 684 794 
z
" transform="scale(0.015625)"/>
       </defs>
       <use xlink:href="#DejaVuSans-30"/>
       <use xlink:href="#DejaVuSans-2e" x="63.623047"/>
       <use xlink:href="#DejaVuSans-30" x="95.410156"/>
      </g>
     </g>
    </g>
    <g id="xtick_2">
     <g id="line2d_2">
      <g>
       <use xlink:href="#m4a5e0430c5" x="131.307386" y="273.312" style="stroke: #000000; stroke-width: 0.8"/>
      </g>
     </g>
     <g id="text_2">
      <!-- 0.2 -->
      <g transform="translate(123.355824 287.910437)scale(0.1 -0.1)">
       <defs>
        <path id="DejaVuSans-32" d="M 1228 531 
L 3431 531 
L 3431 0 
L 469 0 
L 469 531 
Q 828 903 1448 1529 
Q 2069 2156 2228 2338 
Q 2531 2678 2651 2914 
Q 2772 3150 2772 3378 
Q 2772 3750 2511 3984 
Q 2250 4219 1831 4219 
Q 1534 4219 1204 4116 
Q 875 4013 500 3803 
L 500 4441 
Q 881 4594 1212 4672 
Q 1544 4750 1819 4750 
Q 2544 4750 2975 4387 
Q 3406 4025 3406 3419 
Q 3406 3131 3298 2873 
Q 3191 2616 2906 2266 
Q 2828 2175 2409 1742 
Q 1991 1309 1228 531 
z
" transform="scale(0.015625)"/>
       </defs>
       <use xlink:href="#DejaVuSans-30"/>
       <use xlink:href="#DejaVuSans-2e" x="63.623047"/>
       <use xlink:href="#DejaVuSans-32" x="95.410156"/>
      </g>
     </g>
    </g>
    <g id="xtick_3">
     <g id="line2d_3">
      <g>
       <use xlink:href="#m4a5e0430c5" x="196.238295" y="273.312" style="stroke: #000000; stroke-width: 0.8"/>
      </g>
     </g>
     <g id="text_3">
      <!-- 0.4 -->
      <g transform="translate(188.286733 287.910437)scale(0.1 -0.1)">
       <defs>
        <path id="DejaVuSans-34" d="M 2419 4116 
L 825 1625 
L 2419 1625 
L 2419 4116 
z
M 2253 4666 
L 3047 4666 
L 3047 1625 
L 3713 1625 
L 3713 1100 
L 3047 1100 
L 3047 0 
L 2419 0 
L 2419 1100 
L 313 1100 
L 313 1709 
L 2253 4666 
z
" transform="scale(0.015625)"/>
       </defs>
       <use xlink:href="#DejaVuSans-30"/>
       <use xlink:href="#DejaVuSans-2e" x="63.623047"/>
       <use xlink:href="#DejaVuSans-34" x="95.410156"/>
      </g>
     </g>
    </g>
    <g id="xtick_4">
     <g id="line2d_4">
      <g>
       <use xlink:href="#m4a5e0430c5" x="261.169205" y="273.312" style="stroke: #000000; stroke-width: 0.8"/>
      </g>
     </g>
     <g id="text_4">
      <!-- 0.6 -->
      <g transform="translate(253.217642 287.910437)scale(0.1 -0.1)">
       <defs>
        <path id="DejaVuSans-36" d="M 2113 2584 
Q 1688 2584 1439 2293 
Q 1191 2003 1191 1497 
Q 1191 994 1439 701 
Q 1688 409 2113 409 
Q 2538 409 2786 701 
Q 3034 994 3034 1497 
Q 3034 2003 2786 2293 
Q 2538 2584 2113 2584 
z
M 3366 4563 
L 3366 3988 
Q 3128 4100 2886 4159 
Q 2644 4219 2406 4219 
Q 1781 4219 1451 3797 
Q 1122 3375 1075 2522 
Q 1259 2794 1537 2939 
Q 1816 3084 2150 3084 
Q 2853 3084 3261 2657 
Q 3669 2231 3669 1497 
Q 3669 778 3244 343 
Q 2819 -91 2113 -91 
Q 1303 -91 875 529 
Q 447 1150 447 2328 
Q 447 3434 972 4092 
Q 1497 4750 2381 4750 
Q 2619 4750 2861 4703 
Q 3103 4656 3366 4563 
z
" transform="scale(0.015625)"/>
       </defs>
       <use xlink:href="#DejaVuSans-30"/>
       <use xlink:href="#DejaVuSans-2e" x="63.623047"/>
       <use xlink:href="#DejaVuSans-36" x="95.410156"/>
      </g>
     </g>
    </g>
    <g id="xtick_5">
     <g id="line2d_5">
      <g>
       <use xlink:href="#m4a5e0430c5" x="326.100114" y="273.312" style="stroke: #000000; stroke-width: 0.8"/>
      </g>
     </g>
     <g id="text_5">
      <!-- 0.8 -->
      <g transform="translate(318.148551 287.910437)scale(0.1 -0.1)">
       <defs>
        <path id="DejaVuSans-38" d="M 2034 2216 
Q 1584 2216 1326 1975 
Q 1069 1734 1069 1313 
Q 1069 891 1326 650 
Q 1584 409 2034 409 
Q 2484 409 2743 651 
Q 3003 894 3003 1313 
Q 3003 1734 2745 1975 
Q 2488 2216 2034 2216 
z
M 1403 2484 
Q 997 2584 770 2862 
Q 544 3141 544 3541 
Q 544 4100 942 4425 
Q 1341 4750 2034 4750 
Q 2731 4750 3128 4425 
Q 3525 4100 3525 3541 
Q 3525 3141 3298 2862 
Q 3072 2584 2669 2484 
Q 3125 2378 3379 2068 
Q 3634 1759 3634 1313 
Q 3634 634 3220 271 
Q 2806 -91 2034 -91 
Q 1263 -91 848 271 
Q 434 634 434 1313 
Q 434 1759 690 2068 
Q 947 2378 1403 2484 
z
M 1172 3481 
Q 1172 3119 1398 2916 
Q 1625 2713 2034 2713 
Q 2441 2713 2670 2916 
Q 2900 3119 2900 3481 
Q 2900 3844 2670 4047 
Q 2441 4250 2034 4250 
Q 1625 4250 1398 4047 
Q 1172 3844 1172 3481 
z
" transform="scale(0.015625)"/>
       </defs>
       <use xlink:href="#DejaVuSans-30"/>
       <use xlink:href="#DejaVuSans-2e" x="63.623047"/>
       <use xlink:href="#DejaVuSans-38" x="95.410156"/>
      </g>
     </g>
    </g>
    <g id="xtick_6">
     <g id="line2d_6">
      <g>
       <use xlink:href="#m4a5e0430c5" x="391.031023" y="273.312" style="stroke: #000000; stroke-width: 0.8"/>
      </g>
     </g>
     <g id="text_6">
      <!-- 1.0 -->
      <g transform="translate(383.07946 287.910437)scale(0.1 -0.1)">
       <defs>
        <path id="DejaVuSans-31" d="M 794 531 
L 1825 531 
L 1825 4091 
L 703 3866 
L 703 4441 
L 1819 4666 
L 2450 4666 
L 2450 531 
L 3481 531 
L 3481 0 
L 794 0 
L 794 531 
z
" transform="scale(0.015625)"/>
       </defs>
       <use xlink:href="#DejaVuSans-31"/>
       <use xlink:href="#DejaVuSans-2e" x="63.623047"/>
       <use xlink:href="#DejaVuSans-30" x="95.410156"/>
      </g>
     </g>
    </g>
    <g id="text_7">
     <!-- Propagation direction -->
     <g transform="translate(175.221719 301.588562)scale(0.1 -0.1)">
      <defs>
       <path id="DejaVuSans-50" d="M 1259 4147 
L 1259 2394 
L 2053 2394 
Q 2494 2394 2734 2622 
Q 2975 2850 2975 3272 
Q 2975 3691 2734 3919 
Q 2494 4147 2053 4147 
L 1259 4147 
z
M 628 4666 
L 2053 4666 
Q 2838 4666 3239 4311 
Q 3641 3956 3641 3272 
Q 3641 2581 3239 2228 
Q 2838 1875 2053 1875 
L 1259 1875 
L 1259 0 
L 628 0 
L 628 4666 
z
" transform="scale(0.015625)"/>
       <path id="DejaVuSans-72" d="M 2631 2963 
Q 2534 3019 2420 3045 
Q 2306 3072 2169 3072 
Q 1681 3072 1420 2755 
Q 1159 2438 1159 1844 
L 1159 0 
L 581 0 
L 581 3500 
L 1159 3500 
L 1159 2956 
Q 1341 3275 1631 3429 
Q 1922 3584 2338 3584 
Q 2397 3584 2469 3576 
Q 2541 3569 2628 3553 
L 2631 2963 
z
" transform="scale(0.015625)"/>
       <path id="DejaVuSans-6f" d="M 1959 3097 
Q 1497 3097 1228 2736 
Q 959 2375 959 1747 
Q 959 1119 1226 758 
Q 1494 397 1959 397 
Q 2419 397 2687 759 
Q 2956 1122 2956 1747 
Q 2956 2369 2687 2733 
Q 2419 3097 1959 3097 
z
M 1959 3584 
Q 2709 3584 3137 3096 
Q 3566 2609 3566 1747 
Q 3566 888 3137 398 
Q 2709 -91 1959 -91 
Q 1206 -91 779 398 
Q 353 888 353 1747 
Q 353 2609 779 3096 
Q 1206 3584 1959 3584 
z
" transform="scale(0.015625)"/>
       <path id="DejaVuSans-70" d="M 1159 525 
L 1159 -1331 
L 581 -1331 
L 581 3500 
L 1159 3500 
L 1159 2969 
Q 1341 3281 1617 3432 
Q 1894 3584 2278 3584 
Q 2916 3584 3314 3078 
Q 3713 2572 3713 1747 
Q 3713 922 3314 415 
Q 2916 -91 2278 -91 
Q 1894 -91 1617 61 
Q 1341 213 1159 525 
z
M 3116 1747 
Q 3116 2381 2855 2742 
Q 2594 3103 2138 3103 
Q 1681 3103 1420 2742 
Q 1159 2381 1159 1747 
Q 1159 1113 1420 752 
Q 1681 391 2138 391 
Q 2594 391 2855 752 
Q 3116 1113 3116 1747 
z
" transform="scale(0.015625)"/>
       <path id="DejaVuSans-61" d="M 2194 1759 
Q 1497 1759 1228 1600 
Q 959 1441 959 1056 
Q 959 750 1161 570 
Q 1363 391 1709 391 
Q 2188 391 2477 730 
Q 2766 1069 2766 1631 
L 2766 1759 
L 2194 1759 
z
M 3341 1997 
L 3341 0 
L 2766 0 
L 2766 531 
Q 2569 213 2275 61 
Q 1981 -91 1556 -91 
Q 1019 -91 701 211 
Q 384 513 384 1019 
Q 384 1609 779 1909 
Q 1175 2209 1959 2209 
L 2766 2209 
L 2766 2266 
Q 2766 2663 2505 2880 
Q 2244 3097 1772 3097 
Q 1472 3097 1187 3025 
Q 903 2953 641 2809 
L 641 3341 
Q 956 3463 1253 3523 
Q 1550 3584 1831 3584 
Q 2591 3584 2966 3190 
Q 3341 2797 3341 1997 
z
" transform="scale(0.015625)"/>
       <path id="DejaVuSans-67" d="M 2906 1791 
Q 2906 2416 2648 2759 
Q 2391 3103 1925 3103 
Q 1463 3103 1205 2759 
Q 947 2416 947 1791 
Q 947 1169 1205 825 
Q 1463 481 1925 481 
Q 2391 481 2648 825 
Q 2906 1169 2906 1791 
z
M 3481 434 
Q 3481 -459 3084 -895 
Q 2688 -1331 1869 -1331 
Q 1566 -1331 1297 -1286 
Q 1028 -1241 775 -1147 
L 775 -588 
Q 1028 -725 1275 -790 
Q 1522 -856 1778 -856 
Q 2344 -856 2625 -561 
Q 2906 -266 2906 331 
L 2906 616 
Q 2728 306 2450 153 
Q 2172 0 1784 0 
Q 1141 0 747 490 
Q 353 981 353 1791 
Q 353 2603 747 3093 
Q 1141 3584 1784 3584 
Q 2172 3584 2450 3431 
Q 2728 3278 2906 2969 
L 2906 3500 
L 3481 3500 
L 3481 434 
z
" transform="scale(0.015625)"/>
       <path id="DejaVuSans-74" d="M 1172 4494 
L 1172 3500 
L 2356 3500 
L 2356 3053 
L 1172 3053 
L 1172 1153 
Q 1172 725 1289 603 
Q 1406 481 1766 481 
L 2356 481 
L 2356 0 
L 1766 0 
Q 1100 0 847 248 
Q 594 497 594 1153 
L 594 3053 
L 172 3053 
L 172 3500 
L 594 3500 
L 594 4494 
L 1172 4494 
z
" transform="scale(0.015625)"/>
       <path id="DejaVuSans-69" d="M 603 3500 
L 1178 3500 
L 1178 0 
L 603 0 
L 603 3500 
z
M 603 4863 
L 1178 4863 
L 1178 4134 
L 603 4134 
L 603 4863 
z
" transform="scale(0.015625)"/>
       <path id="DejaVuSans-6e" d="M 3513 2113 
L 3513 0 
L 2938 0 
L 2938 2094 
Q 2938 2591 2744 2837 
Q 2550 3084 2163 3084 
Q 1697 3084 1428 2787 
Q 1159 2491 1159 1978 
L 1159 0 
L 581 0 
L 581 3500 
L 1159 3500 
L 1159 2956 
Q 1366 3272 1645 3428 
Q 1925 3584 2291 3584 
Q 2894 3584 3203 3211 
Q 3513 2838 3513 2113 
z
" transform="scale(0.015625)"/>
       <path id="DejaVuSans-20" transform="scale(0.015625)"/>
       <path id="DejaVuSans-64" d="M 2906 2969 
L 2906 4863 
L 3481 4863 
L 3481 0 
L 2906 0 
L 2906 525 
Q 2725 213 2448 61 
Q 2172 -91 1784 -91 
Q 1150 -91 751 415 
Q 353 922 353 1747 
Q 353 2572 751 3078 
Q 1150 3584 1784 3584 
Q 2172 3584 2448 3432 
Q 2725 3281 2906 2969 
z
M 947 1747 
Q 947 1113 1208 752 
Q 1469 391 1925 391 
Q 2381 391 2643 752 
Q 2906 1113 2906 1747 
Q 2906 2381 2643 2742 
Q 2381 3103 1925 3103 
Q 1469 3103 1208 2742 
Q 947 2381 947 1747 
z
" transform="scale(0.015625)"/>
       <path id="DejaVuSans-65" d="M 3597 1894 
L 3597 1613 
L 953 1613 
Q 991 1019 1311 708 
Q 1631 397 2203 397 
Q 2534 397 2845 478 
Q 3156 559 3463 722 
L 3463 178 
Q 3153 47 2828 -22 
Q 2503 -91 2169 -91 
Q 1331 -91 842 396 
Q 353 884 353 1716 
Q 353 2575 817 3079 
Q 1281 3584 2069 3584 
Q 2775 3584 3186 3129 
Q 3597 2675 3597 1894 
z
M 3022 2063 
Q 3016 2534 2758 2815 
Q 2500 3097 2075 3097 
Q 1594 3097 1305 2825 
Q 1016 2553 972 2059 
L 3022 2063 
z
" transform="scale(0.015625)"/>
       <path id="DejaVuSans-63" d="M 3122 3366 
L 3122 2828 
Q 2878 2963 2633 3030 
Q 2388 3097 2138 3097 
Q 1578 3097 1268 2742 
Q 959 2388 959 1747 
Q 959 1106 1268 751 
Q 1578 397 2138 397 
Q 2388 397 2633 464 
Q 2878 531 3122 666 
L 3122 134 
Q 2881 22 2623 -34 
Q 2366 -91 2075 -91 
Q 1284 -91 818 406 
Q 353 903 353 1747 
Q 353 2603 823 3093 
Q 1294 3584 2113 3584 
Q 2378 3584 2631 3529 
Q 2884 3475 3122 3366 
z
" transform="scale(0.015625)"/>
      </defs>
      <use xlink:href="#DejaVuSans-50"/>
      <use xlink:href="#DejaVuSans-72" x="58.552734"/>
      <use xlink:href="#DejaVuSans-6f" x="97.416016"/>
      <use xlink:href="#DejaVuSans-70" x="158.597656"/>
      <use xlink:href="#DejaVuSans-61" x="222.074219"/>
      <use xlink:href="#DejaVuSans-67" x="283.353516"/>
      <use xlink:href="#DejaVuSans-61" x="346.830078"/>
      <use xlink:href="#DejaVuSans-74" x="408.109375"/>
      <use xlink:href="#DejaVuSans-69" x="447.318359"/>
      <use xlink:href="#DejaVuSans-6f" x="475.101562"/>
      <use xlink:href="#DejaVuSans-6e" x="536.283203"/>
      <use xlink:href="#DejaVuSans-20" x="599.662109"/>
      <use xlink:href="#DejaVuSans-64" x="631.449219"/>
      <use xlink:href="#DejaVuSans-69" x="694.925781"/>
      <use xlink:href="#DejaVuSans-72" x="722.708984"/>
      <use xlink:href="#DejaVuSans-65" x="761.572266"/>
      <use xlink:href="#DejaVuSans-63" x="823.095703"/>
      <use xlink:href="#DejaVuSans-74" x="878.076172"/>
      <use xlink:href="#DejaVuSans-69" x="917.285156"/>
      <use xlink:href="#DejaVuSans-6f" x="945.068359"/>
      <use xlink:href="#DejaVuSans-6e" x="1006.25"/>
     </g>
    </g>
   </g>
   <g id="matplotlib.axis_2">
    <g id="ytick_1">
     <g id="line2d_7">
      <defs>
       <path id="m8534c4e4bd" d="M 0 0 
L -3.5 0 
" style="stroke: #000000; stroke-width: 0.8"/>
      </defs>
      <g>
       <use xlink:href="#m8534c4e4bd" x="50.14375" y="273.312" style="stroke: #000000; stroke-width: 0.8"/>
      </g>
     </g>
     <g id="text_8">
      <!-- 0.00 -->
      <g transform="translate(20.878125 277.111219)scale(0.1 -0.1)">
       <use xlink:href="#DejaVuSans-30"/>
       <use xlink:href="#DejaVuSans-2e" x="63.623047"/>
       <use xlink:href="#DejaVuSans-30" x="95.410156"/>
       <use xlink:href="#DejaVuSans-30" x="159.033203"/>
      </g>
     </g>
    </g>
    <g id="ytick_2">
     <g id="line2d_8">
      <g>
       <use xlink:href="#m8534c4e4bd" x="50.14375" y="243.525583" style="stroke: #000000; stroke-width: 0.8"/>
      </g>
     </g>
     <g id="text_9">
      <!-- 0.25 -->
      <g transform="translate(20.878125 247.324801)scale(0.1 -0.1)">
       <defs>
        <path id="DejaVuSans-35" d="M 691 4666 
L 3169 4666 
L 3169 4134 
L 1269 4134 
L 1269 2991 
Q 1406 3038 1543 3061 
Q 1681 3084 1819 3084 
Q 2600 3084 3056 2656 
Q 3513 2228 3513 1497 
Q 3513 744 3044 326 
Q 2575 -91 1722 -91 
Q 1428 -91 1123 -41 
Q 819 9 494 109 
L 494 744 
Q 775 591 1075 516 
Q 1375 441 1709 441 
Q 2250 441 2565 725 
Q 2881 1009 2881 1497 
Q 2881 1984 2565 2268 
Q 2250 2553 1709 2553 
Q 1456 2553 1204 2497 
Q 953 2441 691 2322 
L 691 4666 
z
" transform="scale(0.015625)"/>
       </defs>
       <use xlink:href="#DejaVuSans-30"/>
       <use xlink:href="#DejaVuSans-2e" x="63.623047"/>
       <use xlink:href="#DejaVuSans-32" x="95.410156"/>
       <use xlink:href="#DejaVuSans-35" x="159.033203"/>
      </g>
     </g>
    </g>
    <g id="ytick_3">
     <g id="line2d_9">
      <g>
       <use xlink:href="#m8534c4e4bd" x="50.14375" y="213.739165" style="stroke: #000000; stroke-width: 0.8"/>
      </g>
     </g>
     <g id="text_10">
      <!-- 0.50 -->
      <g transform="translate(20.878125 217.538384)scale(0.1 -0.1)">
       <use xlink:href="#DejaVuSans-30"/>
       <use xlink:href="#DejaVuSans-2e" x="63.623047"/>
       <use xlink:href="#DejaVuSans-35" x="95.410156"/>
       <use xlink:href="#DejaVuSans-30" x="159.033203"/>
      </g>
     </g>
    </g>
    <g id="ytick_4">
     <g id="line2d_10">
      <g>
       <use xlink:href="#m8534c4e4bd" x="50.14375" y="183.952748" style="stroke: #000000; stroke-width: 0.8"/>
      </g>
     </g>
     <g id="text_11">
      <!-- 0.75 -->
      <g transform="translate(20.878125 187.751967)scale(0.1 -0.1)">
       <defs>
        <path id="DejaVuSans-37" d="M 525 4666 
L 3525 4666 
L 3525 4397 
L 1831 0 
L 1172 0 
L 2766 4134 
L 525 4134 
L 525 4666 
z
" transform="scale(0.015625)"/>
       </defs>
       <use xlink:href="#DejaVuSans-30"/>
       <use xlink:href="#DejaVuSans-2e" x="63.623047"/>
       <use xlink:href="#DejaVuSans-37" x="95.410156"/>
       <use xlink:href="#DejaVuSans-35" x="159.033203"/>
      </g>
     </g>
    </g>
    <g id="ytick_5">
     <g id="line2d_11">
      <g>
       <use xlink:href="#m8534c4e4bd" x="50.14375" y="154.166331" style="stroke: #000000; stroke-width: 0.8"/>
      </g>
     </g>
     <g id="text_12">
      <!-- 1.00 -->
      <g transform="translate(20.878125 157.965549)scale(0.1 -0.1)">
       <use xlink:href="#DejaVuSans-31"/>
       <use xlink:href="#DejaVuSans-2e" x="63.623047"/>
       <use xlink:href="#DejaVuSans-30" x="95.410156"/>
       <use xlink:href="#DejaVuSans-30" x="159.033203"/>
      </g>
     </g>
    </g>
    <g id="ytick_6">
     <g id="line2d_12">
      <g>
       <use xlink:href="#m8534c4e4bd" x="50.14375" y="124.379913" style="stroke: #000000; stroke-width: 0.8"/>
      </g>
     </g>
     <g id="text_13">
      <!-- 1.25 -->
      <g transform="translate(20.878125 128.179132)scale(0.1 -0.1)">
       <use xlink:href="#DejaVuSans-31"/>
       <use xlink:href="#DejaVuSans-2e" x="63.623047"/>
       <use xlink:href="#DejaVuSans-32" x="95.410156"/>
       <use xlink:href="#DejaVuSans-35" x="159.033203"/>
      </g>
     </g>
    </g>
    <g id="ytick_7">
     <g id="line2d_13">
      <g>
       <use xlink:href="#m8534c4e4bd" x="50.14375" y="94.593496" style="stroke: #000000; stroke-width: 0.8"/>
      </g>
     </g>
     <g id="text_14">
      <!-- 1.50 -->
      <g transform="translate(20.878125 98.392715)scale(0.1 -0.1)">
       <use xlink:href="#DejaVuSans-31"/>
       <use xlink:href="#DejaVuSans-2e" x="63.623047"/>
       <use xlink:href="#DejaVuSans-35" x="95.410156"/>
       <use xlink:href="#DejaVuSans-30" x="159.033203"/>
      </g>
     </g>
    </g>
    <g id="ytick_8">
     <g id="line2d_14">
      <g>
       <use xlink:href="#m8534c4e4bd" x="50.14375" y="64.807079" style="stroke: #000000; stroke-width: 0.8"/>
      </g>
     </g>
     <g id="text_15">
      <!-- 1.75 -->
      <g transform="translate(20.878125 68.606297)scale(0.1 -0.1)">
       <use xlink:href="#DejaVuSans-31"/>
       <use xlink:href="#DejaVuSans-2e" x="63.623047"/>
       <use xlink:href="#DejaVuSans-37" x="95.410156"/>
       <use xlink:href="#DejaVuSans-35" x="159.033203"/>
      </g>
     </g>
    </g>
    <g id="ytick_9">
     <g id="line2d_15">
      <g>
       <use xlink:href="#m8534c4e4bd" x="50.14375" y="35.020661" style="stroke: #000000; stroke-width: 0.8"/>
      </g>
     </g>
     <g id="text_16">
      <!-- 2.00 -->
      <g transform="translate(20.878125 38.81988)scale(0.1 -0.1)">
       <use xlink:href="#DejaVuSans-32"/>
       <use xlink:href="#DejaVuSans-2e" x="63.623047"/>
       <use xlink:href="#DejaVuSans-30" x="95.410156"/>
       <use xlink:href="#DejaVuSans-30" x="159.033203"/>
      </g>
     </g>
    </g>
    <g id="text_17">
     <!-- Probability density -->
     <g transform="translate(14.798438 186.606781)rotate(-90)scale(0.1 -0.1)">
      <defs>
       <path id="DejaVuSans-62" d="M 3116 1747 
Q 3116 2381 2855 2742 
Q 2594 3103 2138 3103 
Q 1681 3103 1420 2742 
Q 1159 2381 1159 1747 
Q 1159 1113 1420 752 
Q 1681 391 2138 391 
Q 2594 391 2855 752 
Q 3116 1113 3116 1747 
z
M 1159 2969 
Q 1341 3281 1617 3432 
Q 1894 3584 2278 3584 
Q 2916 3584 3314 3078 
Q 3713 2572 3713 1747 
Q 3713 922 3314 415 
Q 2916 -91 2278 -91 
Q 1894 -91 1617 61 
Q 1341 213 1159 525 
L 1159 0 
L 581 0 
L 581 4863 
L 1159 4863 
L 1159 2969 
z
" transform="scale(0.015625)"/>
       <path id="DejaVuSans-6c" d="M 603 4863 
L 1178 4863 
L 1178 0 
L 603 0 
L 603 4863 
z
" transform="scale(0.015625)"/>
       <path id="DejaVuSans-79" d="M 2059 -325 
Q 1816 -950 1584 -1140 
Q 1353 -1331 966 -1331 
L 506 -1331 
L 506 -850 
L 844 -850 
Q 1081 -850 1212 -737 
Q 1344 -625 1503 -206 
L 1606 56 
L 191 3500 
L 800 3500 
L 1894 763 
L 2988 3500 
L 3597 3500 
L 2059 -325 
z
" transform="scale(0.015625)"/>
       <path id="DejaVuSans-73" d="M 2834 3397 
L 2834 2853 
Q 2591 2978 2328 3040 
Q 2066 3103 1784 3103 
Q 1356 3103 1142 2972 
Q 928 2841 928 2578 
Q 928 2378 1081 2264 
Q 1234 2150 1697 2047 
L 1894 2003 
Q 2506 1872 2764 1633 
Q 3022 1394 3022 966 
Q 3022 478 2636 193 
Q 2250 -91 1575 -91 
Q 1294 -91 989 -36 
Q 684 19 347 128 
L 347 722 
Q 666 556 975 473 
Q 1284 391 1588 391 
Q 1994 391 2212 530 
Q 2431 669 2431 922 
Q 2431 1156 2273 1281 
Q 2116 1406 1581 1522 
L 1381 1569 
Q 847 1681 609 1914 
Q 372 2147 372 2553 
Q 372 3047 722 3315 
Q 1072 3584 1716 3584 
Q 2034 3584 2315 3537 
Q 2597 3491 2834 3397 
z
" transform="scale(0.015625)"/>
      </defs>
      <use xlink:href="#DejaVuSans-50"/>
      <use xlink:href="#DejaVuSans-72" x="58.552734"/>
      <use xlink:href="#DejaVuSans-6f" x="97.416016"/>
      <use xlink:href="#DejaVuSans-62" x="158.597656"/>
      <use xlink:href="#DejaVuSans-61" x="222.074219"/>
      <use xlink:href="#DejaVuSans-62" x="283.353516"/>
      <use xlink:href="#DejaVuSans-69" x="346.830078"/>
      <use xlink:href="#DejaVuSans-6c" x="374.613281"/>
      <use xlink:href="#DejaVuSans-69" x="402.396484"/>
      <use xlink:href="#DejaVuSans-74" x="430.179688"/>
      <use xlink:href="#DejaVuSans-79" x="469.388672"/>
      <use xlink:href="#DejaVuSans-20" x="528.568359"/>
      <use xlink:href="#DejaVuSans-64" x="560.355469"/>
      <use xlink:href="#DejaVuSans-65" x="623.832031"/>
      <use xlink:href="#DejaVuSans-6e" x="685.355469"/>
      <use xlink:href="#DejaVuSans-73" x="748.734375"/>
      <use xlink:href="#DejaVuSans-69" x="800.833984"/>
      <use xlink:href="#DejaVuSans-74" x="828.617188"/>
      <use xlink:href="#DejaVuSans-79" x="867.826172"/>
     </g>
    </g>
   </g>
   <g id="line2d_16">
    <path d="M 66.376477 273.312 
L 391.031023 35.020661 
L 391.031023 35.020661 
" clip-path="url(#p0a1bda7bae)" style="fill: none; stroke: #ff7f0e; stroke-width: 1.5; stroke-linecap: square"/>
   </g>
   <g id="patch_203">
    <path d="M 50.14375 273.312 
L 50.14375 7.2 
" style="fill: none; stroke: #000000; stroke-width: 0.8; stroke-linejoin: miter; stroke-linecap: square"/>
   </g>
   <g id="patch_204">
    <path d="M 407.26375 273.312 
L 407.26375 7.2 
" style="fill: none; stroke: #000000; stroke-width: 0.8; stroke-linejoin: miter; stroke-linecap: square"/>
   </g>
   <g id="patch_205">
    <path d="M 50.14375 273.312 
L 407.26375 273.312 
" style="fill: none; stroke: #000000; stroke-width: 0.8; stroke-linejoin: miter; stroke-linecap: square"/>
   </g>
   <g id="patch_206">
    <path d="M 50.14375 7.2 
L 407.26375 7.2 
" style="fill: none; stroke: #000000; stroke-width: 0.8; stroke-linejoin: miter; stroke-linecap: square"/>
   </g>
  </g>
 </g>
 <defs>
  <clipPath id="p0a1bda7bae">
   <rect x="50.14375" y="7.2" width="357.12" height="266.112"/>
  </clipPath>
 </defs>
</svg>
