<?xml version="1.0" encoding="utf-8" standalone="no"?>
<!DOCTYPE svg PUBLIC "-//W3C//DTD SVG 1.1//EN"
  "http://www.w3.org/Graphics/SVG/1.1/DTD/svg11.dtd">
<svg xmlns:xlink="http://www.w3.org/1999/xlink" width="408.10125pt" height="310.86825pt" viewBox="0 0 408.10125 310.86825" xmlns="http://www.w3.org/2000/svg" version="1.1">
 <metadata>
  <rdf:RDF xmlns:dc="http://purl.org/dc/elements/1.1/" xmlns:cc="http://creativecommons.org/ns#" xmlns:rdf="http://www.w3.org/1999/02/22-rdf-syntax-ns#">
   <cc:Work>
    <dc:type rdf:resource="http://purl.org/dc/dcmitype/StillImage"/>
    <dc:date>2022-02-04T16:06:52.764810</dc:date>
    <dc:format>image/svg+xml</dc:format>
    <dc:creator>
     <cc:Agent>
      <dc:title>Matplotlib v3.5.1, https://matplotlib.org/</dc:title>
     </cc:Agent>
    </dc:creator>
   </cc:Work>
  </rdf:RDF>
 </metadata>
 <defs>
  <style type="text/css">*{stroke-linejoin: round; stroke-linecap: butt}</style>
 </defs>
 <g id="figure_1">
  <g id="patch_1">
   <path d="M 0 310.86825 
L 408.10125 310.86825 
L 408.10125 0 
L 0 0 
z
" style="fill: #ffffff"/>
  </g>
  <g id="axes_1">
   <g id="patch_2">
    <path d="M 43.78125 273.312 
L 400.90125 273.312 
L 400.90125 7.2 
L 43.78125 7.2 
z
" style="fill: #ffffff"/>
   </g>
   <g id="patch_3">
    <path d="M 61.369939 273.312 
L 62.982984 273.312 
L 62.982984 268.169739 
L 61.369939 268.169739 
z
" clip-path="url(#pc5b69a0af4)" style="fill: #1f77b4"/>
   </g>
   <g id="patch_4">
    <path d="M 62.982984 273.312 
L 64.596028 273.312 
L 64.596028 265.965913 
L 62.982984 265.965913 
z
" clip-path="url(#pc5b69a0af4)" style="fill: #1f77b4"/>
   </g>
   <g id="patch_5">
    <path d="M 64.596028 273.312 
L 66.209073 273.312 
L 66.209073 262.29287 
L 64.596028 262.29287 
z
" clip-path="url(#pc5b69a0af4)" style="fill: #1f77b4"/>
   </g>
   <g id="patch_6">
    <path d="M 66.209073 273.312 
L 67.822117 273.312 
L 67.822117 254.946783 
L 66.209073 254.946783 
z
" clip-path="url(#pc5b69a0af4)" style="fill: #1f77b4"/>
   </g>
   <g id="patch_7">
    <path d="M 67.822117 273.312 
L 69.435162 273.312 
L 69.435162 250.53913 
L 67.822117 250.53913 
z
" clip-path="url(#pc5b69a0af4)" style="fill: #1f77b4"/>
   </g>
   <g id="patch_8">
    <path d="M 69.435162 273.312 
L 71.048206 273.312 
L 71.048206 247.600696 
L 69.435162 247.600696 
z
" clip-path="url(#pc5b69a0af4)" style="fill: #1f77b4"/>
   </g>
   <g id="patch_9">
    <path d="M 71.048206 273.312 
L 72.661251 273.312 
L 72.661251 246.866087 
L 71.048206 246.866087 
z
" clip-path="url(#pc5b69a0af4)" style="fill: #1f77b4"/>
   </g>
   <g id="patch_10">
    <path d="M 72.661251 273.312 
L 74.274295 273.312 
L 74.274295 240.254609 
L 72.661251 240.254609 
z
" clip-path="url(#pc5b69a0af4)" style="fill: #1f77b4"/>
   </g>
   <g id="patch_11">
    <path d="M 74.274295 273.312 
L 75.887339 273.312 
L 75.887339 243.193043 
L 74.274295 243.193043 
z
" clip-path="url(#pc5b69a0af4)" style="fill: #1f77b4"/>
   </g>
   <g id="patch_12">
    <path d="M 75.887339 273.312 
L 77.500384 273.312 
L 77.500384 235.846957 
L 75.887339 235.846957 
z
" clip-path="url(#pc5b69a0af4)" style="fill: #1f77b4"/>
   </g>
   <g id="patch_13">
    <path d="M 77.500384 273.312 
L 79.113428 273.312 
L 79.113428 227.766261 
L 77.500384 227.766261 
z
" clip-path="url(#pc5b69a0af4)" style="fill: #1f77b4"/>
   </g>
   <g id="patch_14">
    <path d="M 79.113428 273.312 
L 80.726473 273.312 
L 80.726473 231.439304 
L 79.113428 231.439304 
z
" clip-path="url(#pc5b69a0af4)" style="fill: #1f77b4"/>
   </g>
   <g id="patch_15">
    <path d="M 80.726473 273.312 
L 82.339517 273.312 
L 82.339517 234.377739 
L 80.726473 234.377739 
z
" clip-path="url(#pc5b69a0af4)" style="fill: #1f77b4"/>
   </g>
   <g id="patch_16">
    <path d="M 82.339517 273.312 
L 83.952562 273.312 
L 83.952562 228.50087 
L 82.339517 228.50087 
z
" clip-path="url(#pc5b69a0af4)" style="fill: #1f77b4"/>
   </g>
   <g id="patch_17">
    <path d="M 83.952562 273.312 
L 85.565606 273.312 
L 85.565606 215.277913 
L 83.952562 215.277913 
z
" clip-path="url(#pc5b69a0af4)" style="fill: #1f77b4"/>
   </g>
   <g id="patch_18">
    <path d="M 85.565606 273.312 
L 87.17865 273.312 
L 87.17865 215.277913 
L 85.565606 215.277913 
z
" clip-path="url(#pc5b69a0af4)" style="fill: #1f77b4"/>
   </g>
   <g id="patch_19">
    <path d="M 87.17865 273.312 
L 88.791695 273.312 
L 88.791695 210.135652 
L 87.17865 210.135652 
z
" clip-path="url(#pc5b69a0af4)" style="fill: #1f77b4"/>
   </g>
   <g id="patch_20">
    <path d="M 88.791695 273.312 
L 90.404739 273.312 
L 90.404739 213.074087 
L 88.791695 213.074087 
z
" clip-path="url(#pc5b69a0af4)" style="fill: #1f77b4"/>
   </g>
   <g id="patch_21">
    <path d="M 90.404739 273.312 
L 92.017784 273.312 
L 92.017784 198.381913 
L 90.404739 198.381913 
z
" clip-path="url(#pc5b69a0af4)" style="fill: #1f77b4"/>
   </g>
   <g id="patch_22">
    <path d="M 92.017784 273.312 
L 93.630828 273.312 
L 93.630828 200.585739 
L 92.017784 200.585739 
z
" clip-path="url(#pc5b69a0af4)" style="fill: #1f77b4"/>
   </g>
   <g id="patch_23">
    <path d="M 93.630828 273.312 
L 95.243873 273.312 
L 95.243873 199.85113 
L 93.630828 199.85113 
z
" clip-path="url(#pc5b69a0af4)" style="fill: #1f77b4"/>
   </g>
   <g id="patch_24">
    <path d="M 95.243873 273.312 
L 96.856917 273.312 
L 96.856917 190.301217 
L 95.243873 190.301217 
z
" clip-path="url(#pc5b69a0af4)" style="fill: #1f77b4"/>
   </g>
   <g id="patch_25">
    <path d="M 96.856917 273.312 
L 98.469962 273.312 
L 98.469962 202.789565 
L 96.856917 202.789565 
z
" clip-path="url(#pc5b69a0af4)" style="fill: #1f77b4"/>
   </g>
   <g id="patch_26">
    <path d="M 98.469962 273.312 
L 100.083006 273.312 
L 100.083006 177.81287 
L 98.469962 177.81287 
z
" clip-path="url(#pc5b69a0af4)" style="fill: #1f77b4"/>
   </g>
   <g id="patch_27">
    <path d="M 100.083006 273.312 
L 101.69605 273.312 
L 101.69605 168.997565 
L 100.083006 168.997565 
z
" clip-path="url(#pc5b69a0af4)" style="fill: #1f77b4"/>
   </g>
   <g id="patch_28">
    <path d="M 101.69605 273.312 
L 103.309095 273.312 
L 103.309095 163.120696 
L 101.69605 163.120696 
z
" clip-path="url(#pc5b69a0af4)" style="fill: #1f77b4"/>
   </g>
   <g id="patch_29">
    <path d="M 103.309095 273.312 
L 104.922139 273.312 
L 104.922139 188.097391 
L 103.309095 188.097391 
z
" clip-path="url(#pc5b69a0af4)" style="fill: #1f77b4"/>
   </g>
   <g id="patch_30">
    <path d="M 104.922139 273.312 
L 106.535184 273.312 
L 106.535184 163.855304 
L 104.922139 163.855304 
z
" clip-path="url(#pc5b69a0af4)" style="fill: #1f77b4"/>
   </g>
   <g id="patch_31">
    <path d="M 106.535184 273.312 
L 108.148228 273.312 
L 108.148228 152.836174 
L 106.535184 152.836174 
z
" clip-path="url(#pc5b69a0af4)" style="fill: #1f77b4"/>
   </g>
   <g id="patch_32">
    <path d="M 108.148228 273.312 
L 109.761273 273.312 
L 109.761273 163.855304 
L 108.148228 163.855304 
z
" clip-path="url(#pc5b69a0af4)" style="fill: #1f77b4"/>
   </g>
   <g id="patch_33">
    <path d="M 109.761273 273.312 
L 111.374317 273.312 
L 111.374317 169.732174 
L 109.761273 169.732174 
z
" clip-path="url(#pc5b69a0af4)" style="fill: #1f77b4"/>
   </g>
   <g id="patch_34">
    <path d="M 111.374317 273.312 
L 112.987362 273.312 
L 112.987362 151.366957 
L 111.374317 151.366957 
z
" clip-path="url(#pc5b69a0af4)" style="fill: #1f77b4"/>
   </g>
   <g id="patch_35">
    <path d="M 112.987362 273.312 
L 114.600406 273.312 
L 114.600406 166.793739 
L 112.987362 166.793739 
z
" clip-path="url(#pc5b69a0af4)" style="fill: #1f77b4"/>
   </g>
   <g id="patch_36">
    <path d="M 114.600406 273.312 
L 116.21345 273.312 
L 116.21345 156.509217 
L 114.600406 156.509217 
z
" clip-path="url(#pc5b69a0af4)" style="fill: #1f77b4"/>
   </g>
   <g id="patch_37">
    <path d="M 116.21345 273.312 
L 117.826495 273.312 
L 117.826495 171.201391 
L 116.21345 171.201391 
z
" clip-path="url(#pc5b69a0af4)" style="fill: #1f77b4"/>
   </g>
   <g id="patch_38">
    <path d="M 117.826495 273.312 
L 119.439539 273.312 
L 119.439539 144.755478 
L 117.826495 144.755478 
z
" clip-path="url(#pc5b69a0af4)" style="fill: #1f77b4"/>
   </g>
   <g id="patch_39">
    <path d="M 119.439539 273.312 
L 121.052584 273.312 
L 121.052584 131.532522 
L 119.439539 131.532522 
z
" clip-path="url(#pc5b69a0af4)" style="fill: #1f77b4"/>
   </g>
   <g id="patch_40">
    <path d="M 121.052584 273.312 
L 122.665628 273.312 
L 122.665628 136.674783 
L 121.052584 136.674783 
z
" clip-path="url(#pc5b69a0af4)" style="fill: #1f77b4"/>
   </g>
   <g id="patch_41">
    <path d="M 122.665628 273.312 
L 124.278673 273.312 
L 124.278673 128.594087 
L 122.665628 128.594087 
z
" clip-path="url(#pc5b69a0af4)" style="fill: #1f77b4"/>
   </g>
   <g id="patch_42">
    <path d="M 124.278673 273.312 
L 125.891717 273.312 
L 125.891717 129.328696 
L 124.278673 129.328696 
z
" clip-path="url(#pc5b69a0af4)" style="fill: #1f77b4"/>
   </g>
   <g id="patch_43">
    <path d="M 125.891717 273.312 
L 127.504761 273.312 
L 127.504761 137.409391 
L 125.891717 137.409391 
z
" clip-path="url(#pc5b69a0af4)" style="fill: #1f77b4"/>
   </g>
   <g id="patch_44">
    <path d="M 127.504761 273.312 
L 129.117806 273.312 
L 129.117806 104.352 
L 127.504761 104.352 
z
" clip-path="url(#pc5b69a0af4)" style="fill: #1f77b4"/>
   </g>
   <g id="patch_45">
    <path d="M 129.117806 273.312 
L 130.73085 273.312 
L 130.73085 136.674783 
L 129.117806 136.674783 
z
" clip-path="url(#pc5b69a0af4)" style="fill: #1f77b4"/>
   </g>
   <g id="patch_46">
    <path d="M 130.73085 273.312 
L 132.343895 273.312 
L 132.343895 134.470957 
L 130.73085 134.470957 
z
" clip-path="url(#pc5b69a0af4)" style="fill: #1f77b4"/>
   </g>
   <g id="patch_47">
    <path d="M 132.343895 273.312 
L 133.956939 273.312 
L 133.956939 123.451826 
L 132.343895 123.451826 
z
" clip-path="url(#pc5b69a0af4)" style="fill: #1f77b4"/>
   </g>
   <g id="patch_48">
    <path d="M 133.956939 273.312 
L 135.569984 273.312 
L 135.569984 125.655652 
L 133.956939 125.655652 
z
" clip-path="url(#pc5b69a0af4)" style="fill: #1f77b4"/>
   </g>
   <g id="patch_49">
    <path d="M 135.569984 273.312 
L 137.183028 273.312 
L 137.183028 120.513391 
L 135.569984 120.513391 
z
" clip-path="url(#pc5b69a0af4)" style="fill: #1f77b4"/>
   </g>
   <g id="patch_50">
    <path d="M 137.183028 273.312 
L 138.796073 273.312 
L 138.796073 114.636522 
L 137.183028 114.636522 
z
" clip-path="url(#pc5b69a0af4)" style="fill: #1f77b4"/>
   </g>
   <g id="patch_51">
    <path d="M 138.796073 273.312 
L 140.409117 273.312 
L 140.409117 101.413565 
L 138.796073 101.413565 
z
" clip-path="url(#pc5b69a0af4)" style="fill: #1f77b4"/>
   </g>
   <g id="patch_52">
    <path d="M 140.409117 273.312 
L 142.022161 273.312 
L 142.022161 132.26713 
L 140.409117 132.26713 
z
" clip-path="url(#pc5b69a0af4)" style="fill: #1f77b4"/>
   </g>
   <g id="patch_53">
    <path d="M 142.022161 273.312 
L 143.635206 273.312 
L 143.635206 116.105739 
L 142.022161 116.105739 
z
" clip-path="url(#pc5b69a0af4)" style="fill: #1f77b4"/>
   </g>
   <g id="patch_54">
    <path d="M 143.635206 273.312 
L 145.24825 273.312 
L 145.24825 97.740522 
L 143.635206 97.740522 
z
" clip-path="url(#pc5b69a0af4)" style="fill: #1f77b4"/>
   </g>
   <g id="patch_55">
    <path d="M 145.24825 273.312 
L 146.861295 273.312 
L 146.861295 104.352 
L 145.24825 104.352 
z
" clip-path="url(#pc5b69a0af4)" style="fill: #1f77b4"/>
   </g>
   <g id="patch_56">
    <path d="M 146.861295 273.312 
L 148.474339 273.312 
L 148.474339 95.536696 
L 146.861295 95.536696 
z
" clip-path="url(#pc5b69a0af4)" style="fill: #1f77b4"/>
   </g>
   <g id="patch_57">
    <path d="M 148.474339 273.312 
L 150.087384 273.312 
L 150.087384 100.678957 
L 148.474339 100.678957 
z
" clip-path="url(#pc5b69a0af4)" style="fill: #1f77b4"/>
   </g>
   <g id="patch_58">
    <path d="M 150.087384 273.312 
L 151.700428 273.312 
L 151.700428 105.086609 
L 150.087384 105.086609 
z
" clip-path="url(#pc5b69a0af4)" style="fill: #1f77b4"/>
   </g>
   <g id="patch_59">
    <path d="M 151.700428 273.312 
L 153.313473 273.312 
L 153.313473 83.048348 
L 151.700428 83.048348 
z
" clip-path="url(#pc5b69a0af4)" style="fill: #1f77b4"/>
   </g>
   <g id="patch_60">
    <path d="M 153.313473 273.312 
L 154.926517 273.312 
L 154.926517 94.802087 
L 153.313473 94.802087 
z
" clip-path="url(#pc5b69a0af4)" style="fill: #1f77b4"/>
   </g>
   <g id="patch_61">
    <path d="M 154.926517 273.312 
L 156.539561 273.312 
L 156.539561 83.782957 
L 154.926517 83.782957 
z
" clip-path="url(#pc5b69a0af4)" style="fill: #1f77b4"/>
   </g>
   <g id="patch_62">
    <path d="M 156.539561 273.312 
L 158.152606 273.312 
L 158.152606 71.294609 
L 156.539561 71.294609 
z
" clip-path="url(#pc5b69a0af4)" style="fill: #1f77b4"/>
   </g>
   <g id="patch_63">
    <path d="M 158.152606 273.312 
L 159.76565 273.312 
L 159.76565 93.33287 
L 158.152606 93.33287 
z
" clip-path="url(#pc5b69a0af4)" style="fill: #1f77b4"/>
   </g>
   <g id="patch_64">
    <path d="M 159.76565 273.312 
L 161.378695 273.312 
L 161.378695 66.886957 
L 159.76565 66.886957 
z
" clip-path="url(#pc5b69a0af4)" style="fill: #1f77b4"/>
   </g>
   <g id="patch_65">
    <path d="M 161.378695 273.312 
L 162.991739 273.312 
L 162.991739 86.721391 
L 161.378695 86.721391 
z
" clip-path="url(#pc5b69a0af4)" style="fill: #1f77b4"/>
   </g>
   <g id="patch_66">
    <path d="M 162.991739 273.312 
L 164.604784 273.312 
L 164.604784 88.925217 
L 162.991739 88.925217 
z
" clip-path="url(#pc5b69a0af4)" style="fill: #1f77b4"/>
   </g>
   <g id="patch_67">
    <path d="M 164.604784 273.312 
L 166.217828 273.312 
L 166.217828 61.010087 
L 164.604784 61.010087 
z
" clip-path="url(#pc5b69a0af4)" style="fill: #1f77b4"/>
   </g>
   <g id="patch_68">
    <path d="M 166.217828 273.312 
L 167.830872 273.312 
L 167.830872 66.886957 
L 166.217828 66.886957 
z
" clip-path="url(#pc5b69a0af4)" style="fill: #1f77b4"/>
   </g>
   <g id="patch_69">
    <path d="M 167.830872 273.312 
L 169.443917 273.312 
L 169.443917 46.317913 
L 167.830872 46.317913 
z
" clip-path="url(#pc5b69a0af4)" style="fill: #1f77b4"/>
   </g>
   <g id="patch_70">
    <path d="M 169.443917 273.312 
L 171.056961 273.312 
L 171.056961 74.967652 
L 169.443917 74.967652 
z
" clip-path="url(#pc5b69a0af4)" style="fill: #1f77b4"/>
   </g>
   <g id="patch_71">
    <path d="M 171.056961 273.312 
L 172.670006 273.312 
L 172.670006 80.109913 
L 171.056961 80.109913 
z
" clip-path="url(#pc5b69a0af4)" style="fill: #1f77b4"/>
   </g>
   <g id="patch_72">
    <path d="M 172.670006 273.312 
L 174.28305 273.312 
L 174.28305 73.498435 
L 172.670006 73.498435 
z
" clip-path="url(#pc5b69a0af4)" style="fill: #1f77b4"/>
   </g>
   <g id="patch_73">
    <path d="M 174.28305 273.312 
L 175.896095 273.312 
L 175.896095 99.209739 
L 174.28305 99.209739 
z
" clip-path="url(#pc5b69a0af4)" style="fill: #1f77b4"/>
   </g>
   <g id="patch_74">
    <path d="M 175.896095 273.312 
L 177.509139 273.312 
L 177.509139 40.441043 
L 175.896095 40.441043 
z
" clip-path="url(#pc5b69a0af4)" style="fill: #1f77b4"/>
   </g>
   <g id="patch_75">
    <path d="M 177.509139 273.312 
L 179.122184 273.312 
L 179.122184 52.194783 
L 177.509139 52.194783 
z
" clip-path="url(#pc5b69a0af4)" style="fill: #1f77b4"/>
   </g>
   <g id="patch_76">
    <path d="M 179.122184 273.312 
L 180.735228 273.312 
L 180.735228 60.275478 
L 179.122184 60.275478 
z
" clip-path="url(#pc5b69a0af4)" style="fill: #1f77b4"/>
   </g>
   <g id="patch_77">
    <path d="M 180.735228 273.312 
L 182.348272 273.312 
L 182.348272 62.479304 
L 180.735228 62.479304 
z
" clip-path="url(#pc5b69a0af4)" style="fill: #1f77b4"/>
   </g>
   <g id="patch_78">
    <path d="M 182.348272 273.312 
L 183.961317 273.312 
L 183.961317 73.498435 
L 182.348272 73.498435 
z
" clip-path="url(#pc5b69a0af4)" style="fill: #1f77b4"/>
   </g>
   <g id="patch_79">
    <path d="M 183.961317 273.312 
L 185.574361 273.312 
L 185.574361 66.886957 
L 183.961317 66.886957 
z
" clip-path="url(#pc5b69a0af4)" style="fill: #1f77b4"/>
   </g>
   <g id="patch_80">
    <path d="M 185.574361 273.312 
L 187.187406 273.312 
L 187.187406 47.052522 
L 185.574361 47.052522 
z
" clip-path="url(#pc5b69a0af4)" style="fill: #1f77b4"/>
   </g>
   <g id="patch_81">
    <path d="M 187.187406 273.312 
L 188.80045 273.312 
L 188.80045 78.640696 
L 187.187406 78.640696 
z
" clip-path="url(#pc5b69a0af4)" style="fill: #1f77b4"/>
   </g>
   <g id="patch_82">
    <path d="M 188.80045 273.312 
L 190.413495 273.312 
L 190.413495 53.664 
L 188.80045 53.664 
z
" clip-path="url(#pc5b69a0af4)" style="fill: #1f77b4"/>
   </g>
   <g id="patch_83">
    <path d="M 190.413495 273.312 
L 192.026539 273.312 
L 192.026539 40.441043 
L 190.413495 40.441043 
z
" clip-path="url(#pc5b69a0af4)" style="fill: #1f77b4"/>
   </g>
   <g id="patch_84">
    <path d="M 192.026539 273.312 
L 193.639583 273.312 
L 193.639583 53.664 
L 192.026539 53.664 
z
" clip-path="url(#pc5b69a0af4)" style="fill: #1f77b4"/>
   </g>
   <g id="patch_85">
    <path d="M 193.639583 273.312 
L 195.252628 273.312 
L 195.252628 61.744696 
L 193.639583 61.744696 
z
" clip-path="url(#pc5b69a0af4)" style="fill: #1f77b4"/>
   </g>
   <g id="patch_86">
    <path d="M 195.252628 273.312 
L 196.865672 273.312 
L 196.865672 32.360348 
L 195.252628 32.360348 
z
" clip-path="url(#pc5b69a0af4)" style="fill: #1f77b4"/>
   </g>
   <g id="patch_87">
    <path d="M 196.865672 273.312 
L 198.478717 273.312 
L 198.478717 59.54087 
L 196.865672 59.54087 
z
" clip-path="url(#pc5b69a0af4)" style="fill: #1f77b4"/>
   </g>
   <g id="patch_88">
    <path d="M 198.478717 273.312 
L 200.091761 273.312 
L 200.091761 54.398609 
L 198.478717 54.398609 
z
" clip-path="url(#pc5b69a0af4)" style="fill: #1f77b4"/>
   </g>
   <g id="patch_89">
    <path d="M 200.091761 273.312 
L 201.704806 273.312 
L 201.704806 55.867826 
L 200.091761 55.867826 
z
" clip-path="url(#pc5b69a0af4)" style="fill: #1f77b4"/>
   </g>
   <g id="patch_90">
    <path d="M 201.704806 273.312 
L 203.31785 273.312 
L 203.31785 50.725565 
L 201.704806 50.725565 
z
" clip-path="url(#pc5b69a0af4)" style="fill: #1f77b4"/>
   </g>
   <g id="patch_91">
    <path d="M 203.31785 273.312 
L 204.930895 273.312 
L 204.930895 57.337043 
L 203.31785 57.337043 
z
" clip-path="url(#pc5b69a0af4)" style="fill: #1f77b4"/>
   </g>
   <g id="patch_92">
    <path d="M 204.930895 273.312 
L 206.543939 273.312 
L 206.543939 52.194783 
L 204.930895 52.194783 
z
" clip-path="url(#pc5b69a0af4)" style="fill: #1f77b4"/>
   </g>
   <g id="patch_93">
    <path d="M 206.543939 273.312 
L 208.156983 273.312 
L 208.156983 52.194783 
L 206.543939 52.194783 
z
" clip-path="url(#pc5b69a0af4)" style="fill: #1f77b4"/>
   </g>
   <g id="patch_94">
    <path d="M 208.156983 273.312 
L 209.770028 273.312 
L 209.770028 51.460174 
L 208.156983 51.460174 
z
" clip-path="url(#pc5b69a0af4)" style="fill: #1f77b4"/>
   </g>
   <g id="patch_95">
    <path d="M 209.770028 273.312 
L 211.383072 273.312 
L 211.383072 44.848696 
L 209.770028 44.848696 
z
" clip-path="url(#pc5b69a0af4)" style="fill: #1f77b4"/>
   </g>
   <g id="patch_96">
    <path d="M 211.383072 273.312 
L 212.996117 273.312 
L 212.996117 47.78713 
L 211.383072 47.78713 
z
" clip-path="url(#pc5b69a0af4)" style="fill: #1f77b4"/>
   </g>
   <g id="patch_97">
    <path d="M 212.996117 273.312 
L 214.609161 273.312 
L 214.609161 76.43687 
L 212.996117 76.43687 
z
" clip-path="url(#pc5b69a0af4)" style="fill: #1f77b4"/>
   </g>
   <g id="patch_98">
    <path d="M 214.609161 273.312 
L 216.222206 273.312 
L 216.222206 45.583304 
L 214.609161 45.583304 
z
" clip-path="url(#pc5b69a0af4)" style="fill: #1f77b4"/>
   </g>
   <g id="patch_99">
    <path d="M 216.222206 273.312 
L 217.83525 273.312 
L 217.83525 57.337043 
L 216.222206 57.337043 
z
" clip-path="url(#pc5b69a0af4)" style="fill: #1f77b4"/>
   </g>
   <g id="patch_100">
    <path d="M 217.83525 273.312 
L 219.448295 273.312 
L 219.448295 48.521739 
L 217.83525 48.521739 
z
" clip-path="url(#pc5b69a0af4)" style="fill: #1f77b4"/>
   </g>
   <g id="patch_101">
    <path d="M 219.448295 273.312 
L 221.061339 273.312 
L 221.061339 35.298783 
L 219.448295 35.298783 
z
" clip-path="url(#pc5b69a0af4)" style="fill: #1f77b4"/>
   </g>
   <g id="patch_102">
    <path d="M 221.061339 273.312 
L 222.674383 273.312 
L 222.674383 20.606609 
L 221.061339 20.606609 
z
" clip-path="url(#pc5b69a0af4)" style="fill: #1f77b4"/>
   </g>
   <g id="patch_103">
    <path d="M 222.674383 273.312 
L 224.287428 273.312 
L 224.287428 60.275478 
L 222.674383 60.275478 
z
" clip-path="url(#pc5b69a0af4)" style="fill: #1f77b4"/>
   </g>
   <g id="patch_104">
    <path d="M 224.287428 273.312 
L 225.900472 273.312 
L 225.900472 31.625739 
L 224.287428 31.625739 
z
" clip-path="url(#pc5b69a0af4)" style="fill: #1f77b4"/>
   </g>
   <g id="patch_105">
    <path d="M 225.900472 273.312 
L 227.513517 273.312 
L 227.513517 60.275478 
L 225.900472 60.275478 
z
" clip-path="url(#pc5b69a0af4)" style="fill: #1f77b4"/>
   </g>
   <g id="patch_106">
    <path d="M 227.513517 273.312 
L 229.126561 273.312 
L 229.126561 45.583304 
L 227.513517 45.583304 
z
" clip-path="url(#pc5b69a0af4)" style="fill: #1f77b4"/>
   </g>
   <g id="patch_107">
    <path d="M 229.126561 273.312 
L 230.739606 273.312 
L 230.739606 41.175652 
L 229.126561 41.175652 
z
" clip-path="url(#pc5b69a0af4)" style="fill: #1f77b4"/>
   </g>
   <g id="patch_108">
    <path d="M 230.739606 273.312 
L 232.35265 273.312 
L 232.35265 38.237217 
L 230.739606 38.237217 
z
" clip-path="url(#pc5b69a0af4)" style="fill: #1f77b4"/>
   </g>
   <g id="patch_109">
    <path d="M 232.35265 273.312 
L 233.965694 273.312 
L 233.965694 25.74887 
L 232.35265 25.74887 
z
" clip-path="url(#pc5b69a0af4)" style="fill: #1f77b4"/>
   </g>
   <g id="patch_110">
    <path d="M 233.965694 273.312 
L 235.578739 273.312 
L 235.578739 41.175652 
L 233.965694 41.175652 
z
" clip-path="url(#pc5b69a0af4)" style="fill: #1f77b4"/>
   </g>
   <g id="patch_111">
    <path d="M 235.578739 273.312 
L 237.191783 273.312 
L 237.191783 46.317913 
L 235.578739 46.317913 
z
" clip-path="url(#pc5b69a0af4)" style="fill: #1f77b4"/>
   </g>
   <g id="patch_112">
    <path d="M 237.191783 273.312 
L 238.804828 273.312 
L 238.804828 39.706435 
L 237.191783 39.706435 
z
" clip-path="url(#pc5b69a0af4)" style="fill: #1f77b4"/>
   </g>
   <g id="patch_113">
    <path d="M 238.804828 273.312 
L 240.417872 273.312 
L 240.417872 37.502609 
L 238.804828 37.502609 
z
" clip-path="url(#pc5b69a0af4)" style="fill: #1f77b4"/>
   </g>
   <g id="patch_114">
    <path d="M 240.417872 273.312 
L 242.030917 273.312 
L 242.030917 42.64487 
L 240.417872 42.64487 
z
" clip-path="url(#pc5b69a0af4)" style="fill: #1f77b4"/>
   </g>
   <g id="patch_115">
    <path d="M 242.030917 273.312 
L 243.643961 273.312 
L 243.643961 32.360348 
L 242.030917 32.360348 
z
" clip-path="url(#pc5b69a0af4)" style="fill: #1f77b4"/>
   </g>
   <g id="patch_116">
    <path d="M 243.643961 273.312 
L 245.257006 273.312 
L 245.257006 19.872 
L 243.643961 19.872 
z
" clip-path="url(#pc5b69a0af4)" style="fill: #1f77b4"/>
   </g>
   <g id="patch_117">
    <path d="M 245.257006 273.312 
L 246.87005 273.312 
L 246.87005 58.071652 
L 245.257006 58.071652 
z
" clip-path="url(#pc5b69a0af4)" style="fill: #1f77b4"/>
   </g>
   <g id="patch_118">
    <path d="M 246.87005 273.312 
L 248.483094 273.312 
L 248.483094 52.929391 
L 246.87005 52.929391 
z
" clip-path="url(#pc5b69a0af4)" style="fill: #1f77b4"/>
   </g>
   <g id="patch_119">
    <path d="M 248.483094 273.312 
L 250.096139 273.312 
L 250.096139 65.417739 
L 248.483094 65.417739 
z
" clip-path="url(#pc5b69a0af4)" style="fill: #1f77b4"/>
   </g>
   <g id="patch_120">
    <path d="M 250.096139 273.312 
L 251.709183 273.312 
L 251.709183 50.725565 
L 250.096139 50.725565 
z
" clip-path="url(#pc5b69a0af4)" style="fill: #1f77b4"/>
   </g>
   <g id="patch_121">
    <path d="M 251.709183 273.312 
L 253.322228 273.312 
L 253.322228 58.071652 
L 251.709183 58.071652 
z
" clip-path="url(#pc5b69a0af4)" style="fill: #1f77b4"/>
   </g>
   <g id="patch_122">
    <path d="M 253.322228 273.312 
L 254.935272 273.312 
L 254.935272 69.090783 
L 253.322228 69.090783 
z
" clip-path="url(#pc5b69a0af4)" style="fill: #1f77b4"/>
   </g>
   <g id="patch_123">
    <path d="M 254.935272 273.312 
L 256.548317 273.312 
L 256.548317 58.806261 
L 254.935272 58.806261 
z
" clip-path="url(#pc5b69a0af4)" style="fill: #1f77b4"/>
   </g>
   <g id="patch_124">
    <path d="M 256.548317 273.312 
L 258.161361 273.312 
L 258.161361 65.417739 
L 256.548317 65.417739 
z
" clip-path="url(#pc5b69a0af4)" style="fill: #1f77b4"/>
   </g>
   <g id="patch_125">
    <path d="M 258.161361 273.312 
L 259.774406 273.312 
L 259.774406 70.56 
L 258.161361 70.56 
z
" clip-path="url(#pc5b69a0af4)" style="fill: #1f77b4"/>
   </g>
   <g id="patch_126">
    <path d="M 259.774406 273.312 
L 261.38745 273.312 
L 261.38745 70.56 
L 259.774406 70.56 
z
" clip-path="url(#pc5b69a0af4)" style="fill: #1f77b4"/>
   </g>
   <g id="patch_127">
    <path d="M 261.38745 273.312 
L 263.000494 273.312 
L 263.000494 47.052522 
L 261.38745 47.052522 
z
" clip-path="url(#pc5b69a0af4)" style="fill: #1f77b4"/>
   </g>
   <g id="patch_128">
    <path d="M 263.000494 273.312 
L 264.613539 273.312 
L 264.613539 74.233043 
L 263.000494 74.233043 
z
" clip-path="url(#pc5b69a0af4)" style="fill: #1f77b4"/>
   </g>
   <g id="patch_129">
    <path d="M 264.613539 273.312 
L 266.226583 273.312 
L 266.226583 77.906087 
L 264.613539 77.906087 
z
" clip-path="url(#pc5b69a0af4)" style="fill: #1f77b4"/>
   </g>
   <g id="patch_130">
    <path d="M 266.226583 273.312 
L 267.839628 273.312 
L 267.839628 60.275478 
L 266.226583 60.275478 
z
" clip-path="url(#pc5b69a0af4)" style="fill: #1f77b4"/>
   </g>
   <g id="patch_131">
    <path d="M 267.839628 273.312 
L 269.452672 273.312 
L 269.452672 61.744696 
L 267.839628 61.744696 
z
" clip-path="url(#pc5b69a0af4)" style="fill: #1f77b4"/>
   </g>
   <g id="patch_132">
    <path d="M 269.452672 273.312 
L 271.065717 273.312 
L 271.065717 88.925217 
L 269.452672 88.925217 
z
" clip-path="url(#pc5b69a0af4)" style="fill: #1f77b4"/>
   </g>
   <g id="patch_133">
    <path d="M 271.065717 273.312 
L 272.678761 273.312 
L 272.678761 55.133217 
L 271.065717 55.133217 
z
" clip-path="url(#pc5b69a0af4)" style="fill: #1f77b4"/>
   </g>
   <g id="patch_134">
    <path d="M 272.678761 273.312 
L 274.291805 273.312 
L 274.291805 70.56 
L 272.678761 70.56 
z
" clip-path="url(#pc5b69a0af4)" style="fill: #1f77b4"/>
   </g>
   <g id="patch_135">
    <path d="M 274.291805 273.312 
L 275.90485 273.312 
L 275.90485 82.313739 
L 274.291805 82.313739 
z
" clip-path="url(#pc5b69a0af4)" style="fill: #1f77b4"/>
   </g>
   <g id="patch_136">
    <path d="M 275.90485 273.312 
L 277.517894 273.312 
L 277.517894 80.109913 
L 275.90485 80.109913 
z
" clip-path="url(#pc5b69a0af4)" style="fill: #1f77b4"/>
   </g>
   <g id="patch_137">
    <path d="M 277.517894 273.312 
L 279.130939 273.312 
L 279.130939 72.029217 
L 277.517894 72.029217 
z
" clip-path="url(#pc5b69a0af4)" style="fill: #1f77b4"/>
   </g>
   <g id="patch_138">
    <path d="M 279.130939 273.312 
L 280.743983 273.312 
L 280.743983 80.844522 
L 279.130939 80.844522 
z
" clip-path="url(#pc5b69a0af4)" style="fill: #1f77b4"/>
   </g>
   <g id="patch_139">
    <path d="M 280.743983 273.312 
L 282.357028 273.312 
L 282.357028 83.782957 
L 280.743983 83.782957 
z
" clip-path="url(#pc5b69a0af4)" style="fill: #1f77b4"/>
   </g>
   <g id="patch_140">
    <path d="M 282.357028 273.312 
L 283.970072 273.312 
L 283.970072 89.659826 
L 282.357028 89.659826 
z
" clip-path="url(#pc5b69a0af4)" style="fill: #1f77b4"/>
   </g>
   <g id="patch_141">
    <path d="M 283.970072 273.312 
L 285.583117 273.312 
L 285.583117 85.986783 
L 283.970072 85.986783 
z
" clip-path="url(#pc5b69a0af4)" style="fill: #1f77b4"/>
   </g>
   <g id="patch_142">
    <path d="M 285.583117 273.312 
L 287.196161 273.312 
L 287.196161 66.152348 
L 285.583117 66.152348 
z
" clip-path="url(#pc5b69a0af4)" style="fill: #1f77b4"/>
   </g>
   <g id="patch_143">
    <path d="M 287.196161 273.312 
L 288.809205 273.312 
L 288.809205 104.352 
L 287.196161 104.352 
z
" clip-path="url(#pc5b69a0af4)" style="fill: #1f77b4"/>
   </g>
   <g id="patch_144">
    <path d="M 288.809205 273.312 
L 290.42225 273.312 
L 290.42225 80.844522 
L 288.809205 80.844522 
z
" clip-path="url(#pc5b69a0af4)" style="fill: #1f77b4"/>
   </g>
   <g id="patch_145">
    <path d="M 290.42225 273.312 
L 292.035294 273.312 
L 292.035294 82.313739 
L 290.42225 82.313739 
z
" clip-path="url(#pc5b69a0af4)" style="fill: #1f77b4"/>
   </g>
   <g id="patch_146">
    <path d="M 292.035294 273.312 
L 293.648339 273.312 
L 293.648339 106.555826 
L 292.035294 106.555826 
z
" clip-path="url(#pc5b69a0af4)" style="fill: #1f77b4"/>
   </g>
   <g id="patch_147">
    <path d="M 293.648339 273.312 
L 295.261383 273.312 
L 295.261383 94.067478 
L 293.648339 94.067478 
z
" clip-path="url(#pc5b69a0af4)" style="fill: #1f77b4"/>
   </g>
   <g id="patch_148">
    <path d="M 295.261383 273.312 
L 296.874428 273.312 
L 296.874428 119.044174 
L 295.261383 119.044174 
z
" clip-path="url(#pc5b69a0af4)" style="fill: #1f77b4"/>
   </g>
   <g id="patch_149">
    <path d="M 296.874428 273.312 
L 298.487472 273.312 
L 298.487472 120.513391 
L 296.874428 120.513391 
z
" clip-path="url(#pc5b69a0af4)" style="fill: #1f77b4"/>
   </g>
   <g id="patch_150">
    <path d="M 298.487472 273.312 
L 300.100517 273.312 
L 300.100517 115.37113 
L 298.487472 115.37113 
z
" clip-path="url(#pc5b69a0af4)" style="fill: #1f77b4"/>
   </g>
   <g id="patch_151">
    <path d="M 300.100517 273.312 
L 301.713561 273.312 
L 301.713561 126.390261 
L 300.100517 126.390261 
z
" clip-path="url(#pc5b69a0af4)" style="fill: #1f77b4"/>
   </g>
   <g id="patch_152">
    <path d="M 301.713561 273.312 
L 303.326605 273.312 
L 303.326605 99.944348 
L 301.713561 99.944348 
z
" clip-path="url(#pc5b69a0af4)" style="fill: #1f77b4"/>
   </g>
   <g id="patch_153">
    <path d="M 303.326605 273.312 
L 304.93965 273.312 
L 304.93965 102.148174 
L 303.326605 102.148174 
z
" clip-path="url(#pc5b69a0af4)" style="fill: #1f77b4"/>
   </g>
   <g id="patch_154">
    <path d="M 304.93965 273.312 
L 306.552694 273.312 
L 306.552694 127.12487 
L 304.93965 127.12487 
z
" clip-path="url(#pc5b69a0af4)" style="fill: #1f77b4"/>
   </g>
   <g id="patch_155">
    <path d="M 306.552694 273.312 
L 308.165739 273.312 
L 308.165739 124.186435 
L 306.552694 124.186435 
z
" clip-path="url(#pc5b69a0af4)" style="fill: #1f77b4"/>
   </g>
   <g id="patch_156">
    <path d="M 308.165739 273.312 
L 309.778783 273.312 
L 309.778783 127.859478 
L 308.165739 127.859478 
z
" clip-path="url(#pc5b69a0af4)" style="fill: #1f77b4"/>
   </g>
   <g id="patch_157">
    <path d="M 309.778783 273.312 
L 311.391828 273.312 
L 311.391828 137.409391 
L 309.778783 137.409391 
z
" clip-path="url(#pc5b69a0af4)" style="fill: #1f77b4"/>
   </g>
   <g id="patch_158">
    <path d="M 311.391828 273.312 
L 313.004872 273.312 
L 313.004872 130.797913 
L 311.391828 130.797913 
z
" clip-path="url(#pc5b69a0af4)" style="fill: #1f77b4"/>
   </g>
   <g id="patch_159">
    <path d="M 313.004872 273.312 
L 314.617916 273.312 
L 314.617916 110.963478 
L 313.004872 110.963478 
z
" clip-path="url(#pc5b69a0af4)" style="fill: #1f77b4"/>
   </g>
   <g id="patch_160">
    <path d="M 314.617916 273.312 
L 316.230961 273.312 
L 316.230961 162.386087 
L 314.617916 162.386087 
z
" clip-path="url(#pc5b69a0af4)" style="fill: #1f77b4"/>
   </g>
   <g id="patch_161">
    <path d="M 316.230961 273.312 
L 317.844005 273.312 
L 317.844005 125.655652 
L 316.230961 125.655652 
z
" clip-path="url(#pc5b69a0af4)" style="fill: #1f77b4"/>
   </g>
   <g id="patch_162">
    <path d="M 317.844005 273.312 
L 319.45705 273.312 
L 319.45705 135.205565 
L 317.844005 135.205565 
z
" clip-path="url(#pc5b69a0af4)" style="fill: #1f77b4"/>
   </g>
   <g id="patch_163">
    <path d="M 319.45705 273.312 
L 321.070094 273.312 
L 321.070094 129.328696 
L 319.45705 129.328696 
z
" clip-path="url(#pc5b69a0af4)" style="fill: #1f77b4"/>
   </g>
   <g id="patch_164">
    <path d="M 321.070094 273.312 
L 322.683139 273.312 
L 322.683139 152.101565 
L 321.070094 152.101565 
z
" clip-path="url(#pc5b69a0af4)" style="fill: #1f77b4"/>
   </g>
   <g id="patch_165">
    <path d="M 322.683139 273.312 
L 324.296183 273.312 
L 324.296183 137.409391 
L 322.683139 137.409391 
z
" clip-path="url(#pc5b69a0af4)" style="fill: #1f77b4"/>
   </g>
   <g id="patch_166">
    <path d="M 324.296183 273.312 
L 325.909228 273.312 
L 325.909228 141.817043 
L 324.296183 141.817043 
z
" clip-path="url(#pc5b69a0af4)" style="fill: #1f77b4"/>
   </g>
   <g id="patch_167">
    <path d="M 325.909228 273.312 
L 327.522272 273.312 
L 327.522272 144.755478 
L 325.909228 144.755478 
z
" clip-path="url(#pc5b69a0af4)" style="fill: #1f77b4"/>
   </g>
   <g id="patch_168">
    <path d="M 327.522272 273.312 
L 329.135316 273.312 
L 329.135316 155.04 
L 327.522272 155.04 
z
" clip-path="url(#pc5b69a0af4)" style="fill: #1f77b4"/>
   </g>
   <g id="patch_169">
    <path d="M 329.135316 273.312 
L 330.748361 273.312 
L 330.748361 141.082435 
L 329.135316 141.082435 
z
" clip-path="url(#pc5b69a0af4)" style="fill: #1f77b4"/>
   </g>
   <g id="patch_170">
    <path d="M 330.748361 273.312 
L 332.361405 273.312 
L 332.361405 162.386087 
L 330.748361 162.386087 
z
" clip-path="url(#pc5b69a0af4)" style="fill: #1f77b4"/>
   </g>
   <g id="patch_171">
    <path d="M 332.361405 273.312 
L 333.97445 273.312 
L 333.97445 169.732174 
L 332.361405 169.732174 
z
" clip-path="url(#pc5b69a0af4)" style="fill: #1f77b4"/>
   </g>
   <g id="patch_172">
    <path d="M 333.97445 273.312 
L 335.587494 273.312 
L 335.587494 151.366957 
L 333.97445 151.366957 
z
" clip-path="url(#pc5b69a0af4)" style="fill: #1f77b4"/>
   </g>
   <g id="patch_173">
    <path d="M 335.587494 273.312 
L 337.200539 273.312 
L 337.200539 182.220522 
L 335.587494 182.220522 
z
" clip-path="url(#pc5b69a0af4)" style="fill: #1f77b4"/>
   </g>
   <g id="patch_174">
    <path d="M 337.200539 273.312 
L 338.813583 273.312 
L 338.813583 171.936 
L 337.200539 171.936 
z
" clip-path="url(#pc5b69a0af4)" style="fill: #1f77b4"/>
   </g>
   <g id="patch_175">
    <path d="M 338.813583 273.312 
L 340.426627 273.312 
L 340.426627 171.936 
L 338.813583 171.936 
z
" clip-path="url(#pc5b69a0af4)" style="fill: #1f77b4"/>
   </g>
   <g id="patch_176">
    <path d="M 340.426627 273.312 
L 342.039672 273.312 
L 342.039672 191.035826 
L 340.426627 191.035826 
z
" clip-path="url(#pc5b69a0af4)" style="fill: #1f77b4"/>
   </g>
   <g id="patch_177">
    <path d="M 342.039672 273.312 
L 343.652716 273.312 
L 343.652716 194.70887 
L 342.039672 194.70887 
z
" clip-path="url(#pc5b69a0af4)" style="fill: #1f77b4"/>
   </g>
   <g id="patch_178">
    <path d="M 343.652716 273.312 
L 345.265761 273.312 
L 345.265761 187.362783 
L 343.652716 187.362783 
z
" clip-path="url(#pc5b69a0af4)" style="fill: #1f77b4"/>
   </g>
   <g id="patch_179">
    <path d="M 345.265761 273.312 
L 346.878805 273.312 
L 346.878805 188.097391 
L 345.265761 188.097391 
z
" clip-path="url(#pc5b69a0af4)" style="fill: #1f77b4"/>
   </g>
   <g id="patch_180">
    <path d="M 346.878805 273.312 
L 348.49185 273.312 
L 348.49185 196.178087 
L 346.878805 196.178087 
z
" clip-path="url(#pc5b69a0af4)" style="fill: #1f77b4"/>
   </g>
   <g id="patch_181">
    <path d="M 348.49185 273.312 
L 350.104894 273.312 
L 350.104894 198.381913 
L 348.49185 198.381913 
z
" clip-path="url(#pc5b69a0af4)" style="fill: #1f77b4"/>
   </g>
   <g id="patch_182">
    <path d="M 350.104894 273.312 
L 351.717939 273.312 
L 351.717939 205.728 
L 350.104894 205.728 
z
" clip-path="url(#pc5b69a0af4)" style="fill: #1f77b4"/>
   </g>
   <g id="patch_183">
    <path d="M 351.717939 273.312 
L 353.330983 273.312 
L 353.330983 189.566609 
L 351.717939 189.566609 
z
" clip-path="url(#pc5b69a0af4)" style="fill: #1f77b4"/>
   </g>
   <g id="patch_184">
    <path d="M 353.330983 273.312 
L 354.944027 273.312 
L 354.944027 198.381913 
L 353.330983 198.381913 
z
" clip-path="url(#pc5b69a0af4)" style="fill: #1f77b4"/>
   </g>
   <g id="patch_185">
    <path d="M 354.944027 273.312 
L 356.557072 273.312 
L 356.557072 204.258783 
L 354.944027 204.258783 
z
" clip-path="url(#pc5b69a0af4)" style="fill: #1f77b4"/>
   </g>
   <g id="patch_186">
    <path d="M 356.557072 273.312 
L 358.170116 273.312 
L 358.170116 228.50087 
L 356.557072 228.50087 
z
" clip-path="url(#pc5b69a0af4)" style="fill: #1f77b4"/>
   </g>
   <g id="patch_187">
    <path d="M 358.170116 273.312 
L 359.783161 273.312 
L 359.783161 221.889391 
L 358.170116 221.889391 
z
" clip-path="url(#pc5b69a0af4)" style="fill: #1f77b4"/>
   </g>
   <g id="patch_188">
    <path d="M 359.783161 273.312 
L 361.396205 273.312 
L 361.396205 209.401043 
L 359.783161 209.401043 
z
" clip-path="url(#pc5b69a0af4)" style="fill: #1f77b4"/>
   </g>
   <g id="patch_189">
    <path d="M 361.396205 273.312 
L 363.00925 273.312 
L 363.00925 227.031652 
L 361.396205 227.031652 
z
" clip-path="url(#pc5b69a0af4)" style="fill: #1f77b4"/>
   </g>
   <g id="patch_190">
    <path d="M 363.00925 273.312 
L 364.622294 273.312 
L 364.622294 235.112348 
L 363.00925 235.112348 
z
" clip-path="url(#pc5b69a0af4)" style="fill: #1f77b4"/>
   </g>
   <g id="patch_191">
    <path d="M 364.622294 273.312 
L 366.235339 273.312 
L 366.235339 229.235478 
L 364.622294 229.235478 
z
" clip-path="url(#pc5b69a0af4)" style="fill: #1f77b4"/>
   </g>
   <g id="patch_192">
    <path d="M 366.235339 273.312 
L 367.848383 273.312 
L 367.848383 237.316174 
L 366.235339 237.316174 
z
" clip-path="url(#pc5b69a0af4)" style="fill: #1f77b4"/>
   </g>
   <g id="patch_193">
    <path d="M 367.848383 273.312 
L 369.461427 273.312 
L 369.461427 237.316174 
L 367.848383 237.316174 
z
" clip-path="url(#pc5b69a0af4)" style="fill: #1f77b4"/>
   </g>
   <g id="patch_194">
    <path d="M 369.461427 273.312 
L 371.074472 273.312 
L 371.074472 245.39687 
L 369.461427 245.39687 
z
" clip-path="url(#pc5b69a0af4)" style="fill: #1f77b4"/>
   </g>
   <g id="patch_195">
    <path d="M 371.074472 273.312 
L 372.687516 273.312 
L 372.687516 235.846957 
L 371.074472 235.846957 
z
" clip-path="url(#pc5b69a0af4)" style="fill: #1f77b4"/>
   </g>
   <g id="patch_196">
    <path d="M 372.687516 273.312 
L 374.300561 273.312 
L 374.300561 249.069913 
L 372.687516 249.069913 
z
" clip-path="url(#pc5b69a0af4)" style="fill: #1f77b4"/>
   </g>
   <g id="patch_197">
    <path d="M 374.300561 273.312 
L 375.913605 273.312 
L 375.913605 249.804522 
L 374.300561 249.804522 
z
" clip-path="url(#pc5b69a0af4)" style="fill: #1f77b4"/>
   </g>
   <g id="patch_198">
    <path d="M 375.913605 273.312 
L 377.52665 273.312 
L 377.52665 258.619826 
L 375.913605 258.619826 
z
" clip-path="url(#pc5b69a0af4)" style="fill: #1f77b4"/>
   </g>
   <g id="patch_199">
    <path d="M 377.52665 273.312 
L 379.139694 273.312 
L 379.139694 257.885217 
L 377.52665 257.885217 
z
" clip-path="url(#pc5b69a0af4)" style="fill: #1f77b4"/>
   </g>
   <g id="patch_200">
    <path d="M 379.139694 273.312 
L 380.752738 273.312 
L 380.752738 259.354435 
L 379.139694 259.354435 
z
" clip-path="url(#pc5b69a0af4)" style="fill: #1f77b4"/>
   </g>
   <g id="patch_201">
    <path d="M 380.752738 273.312 
L 382.365783 273.312 
L 382.365783 267.43513 
L 380.752738 267.43513 
z
" clip-path="url(#pc5b69a0af4)" style="fill: #1f77b4"/>
   </g>
   <g id="patch_202">
    <path d="M 382.365783 273.312 
L 383.978827 273.312 
L 383.978827 268.904348 
L 382.365783 268.904348 
z
" clip-path="url(#pc5b69a0af4)" style="fill: #1f77b4"/>
   </g>
   <g id="matplotlib.axis_1">
    <g id="xtick_1">
     <g id="line2d_1">
      <defs>
       <path id="mbb46e9f15c" d="M 0 0 
L 0 3.5 
" style="stroke: #000000; stroke-width: 0.8"/>
      </defs>
      <g>
       <use xlink:href="#mbb46e9f15c" x="60.013977" y="273.312" style="stroke: #000000; stroke-width: 0.8"/>
      </g>
     </g>
     <g id="text_1">
      <!-- 0.0 -->
      <g transform="translate(52.062415 287.910437)scale(0.1 -0.1)">
       <defs>
        <path id="DejaVuSans-30" d="M 2034 4250 
Q 1547 4250 1301 3770 
Q 1056 3291 1056 2328 
Q 1056 1369 1301 889 
Q 1547 409 2034 409 
Q 2525 409 2770 889 
Q 3016 1369 3016 2328 
Q 3016 3291 2770 3770 
Q 2525 4250 2034 4250 
z
M 2034 4750 
Q 2819 4750 3233 4129 
Q 3647 3509 3647 2328 
Q 3647 1150 3233 529 
Q 2819 -91 2034 -91 
Q 1250 -91 836 529 
Q 422 1150 422 2328 
Q 422 3509 836 4129 
Q 1250 4750 2034 4750 
z
" transform="scale(0.015625)"/>
        <path id="DejaVuSans-2e" d="M 684 794 
L 1344 794 
L 1344 0 
L 684 0 
L 684 794 
z
" transform="scale(0.015625)"/>
       </defs>
       <use xlink:href="#DejaVuSans-30"/>
       <use xlink:href="#DejaVuSans-2e" x="63.623047"/>
       <use xlink:href="#DejaVuSans-30" x="95.410156"/>
      </g>
     </g>
    </g>
    <g id="xtick_2">
     <g id="line2d_2">
      <g>
       <use xlink:href="#mbb46e9f15c" x="101.350278" y="273.312" style="stroke: #000000; stroke-width: 0.8"/>
      </g>
     </g>
     <g id="text_2">
      <!-- 0.2 -->
      <g transform="translate(93.398715 287.910437)scale(0.1 -0.1)">
       <defs>
        <path id="DejaVuSans-32" d="M 1228 531 
L 3431 531 
L 3431 0 
L 469 0 
L 469 531 
Q 828 903 1448 1529 
Q 2069 2156 2228 2338 
Q 2531 2678 2651 2914 
Q 2772 3150 2772 3378 
Q 2772 3750 2511 3984 
Q 2250 4219 1831 4219 
Q 1534 4219 1204 4116 
Q 875 4013 500 3803 
L 500 4441 
Q 881 4594 1212 4672 
Q 1544 4750 1819 4750 
Q 2544 4750 2975 4387 
Q 3406 4025 3406 3419 
Q 3406 3131 3298 2873 
Q 3191 2616 2906 2266 
Q 2828 2175 2409 1742 
Q 1991 1309 1228 531 
z
" transform="scale(0.015625)"/>
       </defs>
       <use xlink:href="#DejaVuSans-30"/>
       <use xlink:href="#DejaVuSans-2e" x="63.623047"/>
       <use xlink:href="#DejaVuSans-32" x="95.410156"/>
      </g>
     </g>
    </g>
    <g id="xtick_3">
     <g id="line2d_3">
      <g>
       <use xlink:href="#mbb46e9f15c" x="142.686578" y="273.312" style="stroke: #000000; stroke-width: 0.8"/>
      </g>
     </g>
     <g id="text_3">
      <!-- 0.4 -->
      <g transform="translate(134.735016 287.910437)scale(0.1 -0.1)">
       <defs>
        <path id="DejaVuSans-34" d="M 2419 4116 
L 825 1625 
L 2419 1625 
L 2419 4116 
z
M 2253 4666 
L 3047 4666 
L 3047 1625 
L 3713 1625 
L 3713 1100 
L 3047 1100 
L 3047 0 
L 2419 0 
L 2419 1100 
L 313 1100 
L 313 1709 
L 2253 4666 
z
" transform="scale(0.015625)"/>
       </defs>
       <use xlink:href="#DejaVuSans-30"/>
       <use xlink:href="#DejaVuSans-2e" x="63.623047"/>
       <use xlink:href="#DejaVuSans-34" x="95.410156"/>
      </g>
     </g>
    </g>
    <g id="xtick_4">
     <g id="line2d_4">
      <g>
       <use xlink:href="#mbb46e9f15c" x="184.022879" y="273.312" style="stroke: #000000; stroke-width: 0.8"/>
      </g>
     </g>
     <g id="text_4">
      <!-- 0.6 -->
      <g transform="translate(176.071316 287.910437)scale(0.1 -0.1)">
       <defs>
        <path id="DejaVuSans-36" d="M 2113 2584 
Q 1688 2584 1439 2293 
Q 1191 2003 1191 1497 
Q 1191 994 1439 701 
Q 1688 409 2113 409 
Q 2538 409 2786 701 
Q 3034 994 3034 1497 
Q 3034 2003 2786 2293 
Q 2538 2584 2113 2584 
z
M 3366 4563 
L 3366 3988 
Q 3128 4100 2886 4159 
Q 2644 4219 2406 4219 
Q 1781 4219 1451 3797 
Q 1122 3375 1075 2522 
Q 1259 2794 1537 2939 
Q 1816 3084 2150 3084 
Q 2853 3084 3261 2657 
Q 3669 2231 3669 1497 
Q 3669 778 3244 343 
Q 2819 -91 2113 -91 
Q 1303 -91 875 529 
Q 447 1150 447 2328 
Q 447 3434 972 4092 
Q 1497 4750 2381 4750 
Q 2619 4750 2861 4703 
Q 3103 4656 3366 4563 
z
" transform="scale(0.015625)"/>
       </defs>
       <use xlink:href="#DejaVuSans-30"/>
       <use xlink:href="#DejaVuSans-2e" x="63.623047"/>
       <use xlink:href="#DejaVuSans-36" x="95.410156"/>
      </g>
     </g>
    </g>
    <g id="xtick_5">
     <g id="line2d_5">
      <g>
       <use xlink:href="#mbb46e9f15c" x="225.35918" y="273.312" style="stroke: #000000; stroke-width: 0.8"/>
      </g>
     </g>
     <g id="text_5">
      <!-- 0.8 -->
      <g transform="translate(217.407617 287.910437)scale(0.1 -0.1)">
       <defs>
        <path id="DejaVuSans-38" d="M 2034 2216 
Q 1584 2216 1326 1975 
Q 1069 1734 1069 1313 
Q 1069 891 1326 650 
Q 1584 409 2034 409 
Q 2484 409 2743 651 
Q 3003 894 3003 1313 
Q 3003 1734 2745 1975 
Q 2488 2216 2034 2216 
z
M 1403 2484 
Q 997 2584 770 2862 
Q 544 3141 544 3541 
Q 544 4100 942 4425 
Q 1341 4750 2034 4750 
Q 2731 4750 3128 4425 
Q 3525 4100 3525 3541 
Q 3525 3141 3298 2862 
Q 3072 2584 2669 2484 
Q 3125 2378 3379 2068 
Q 3634 1759 3634 1313 
Q 3634 634 3220 271 
Q 2806 -91 2034 -91 
Q 1263 -91 848 271 
Q 434 634 434 1313 
Q 434 1759 690 2068 
Q 947 2378 1403 2484 
z
M 1172 3481 
Q 1172 3119 1398 2916 
Q 1625 2713 2034 2713 
Q 2441 2713 2670 2916 
Q 2900 3119 2900 3481 
Q 2900 3844 2670 4047 
Q 2441 4250 2034 4250 
Q 1625 4250 1398 4047 
Q 1172 3844 1172 3481 
z
" transform="scale(0.015625)"/>
       </defs>
       <use xlink:href="#DejaVuSans-30"/>
       <use xlink:href="#DejaVuSans-2e" x="63.623047"/>
       <use xlink:href="#DejaVuSans-38" x="95.410156"/>
      </g>
     </g>
    </g>
    <g id="xtick_6">
     <g id="line2d_6">
      <g>
       <use xlink:href="#mbb46e9f15c" x="266.69548" y="273.312" style="stroke: #000000; stroke-width: 0.8"/>
      </g>
     </g>
     <g id="text_6">
      <!-- 1.0 -->
      <g transform="translate(258.743918 287.910437)scale(0.1 -0.1)">
       <defs>
        <path id="DejaVuSans-31" d="M 794 531 
L 1825 531 
L 1825 4091 
L 703 3866 
L 703 4441 
L 1819 4666 
L 2450 4666 
L 2450 531 
L 3481 531 
L 3481 0 
L 794 0 
L 794 531 
z
" transform="scale(0.015625)"/>
       </defs>
       <use xlink:href="#DejaVuSans-31"/>
       <use xlink:href="#DejaVuSans-2e" x="63.623047"/>
       <use xlink:href="#DejaVuSans-30" x="95.410156"/>
      </g>
     </g>
    </g>
    <g id="xtick_7">
     <g id="line2d_7">
      <g>
       <use xlink:href="#mbb46e9f15c" x="308.031781" y="273.312" style="stroke: #000000; stroke-width: 0.8"/>
      </g>
     </g>
     <g id="text_7">
      <!-- 1.2 -->
      <g transform="translate(300.080218 287.910437)scale(0.1 -0.1)">
       <use xlink:href="#DejaVuSans-31"/>
       <use xlink:href="#DejaVuSans-2e" x="63.623047"/>
       <use xlink:href="#DejaVuSans-32" x="95.410156"/>
      </g>
     </g>
    </g>
    <g id="xtick_8">
     <g id="line2d_8">
      <g>
       <use xlink:href="#mbb46e9f15c" x="349.368081" y="273.312" style="stroke: #000000; stroke-width: 0.8"/>
      </g>
     </g>
     <g id="text_8">
      <!-- 1.4 -->
      <g transform="translate(341.416519 287.910437)scale(0.1 -0.1)">
       <use xlink:href="#DejaVuSans-31"/>
       <use xlink:href="#DejaVuSans-2e" x="63.623047"/>
       <use xlink:href="#DejaVuSans-34" x="95.410156"/>
      </g>
     </g>
    </g>
    <g id="xtick_9">
     <g id="line2d_9">
      <g>
       <use xlink:href="#mbb46e9f15c" x="390.704382" y="273.312" style="stroke: #000000; stroke-width: 0.8"/>
      </g>
     </g>
     <g id="text_9">
      <!-- 1.6 -->
      <g transform="translate(382.752819 287.910437)scale(0.1 -0.1)">
       <use xlink:href="#DejaVuSans-31"/>
       <use xlink:href="#DejaVuSans-2e" x="63.623047"/>
       <use xlink:href="#DejaVuSans-36" x="95.410156"/>
      </g>
     </g>
    </g>
    <g id="text_10">
     <!-- Angle with normal (rad) -->
     <g transform="translate(163.023281 301.588562)scale(0.1 -0.1)">
      <defs>
       <path id="DejaVuSans-41" d="M 2188 4044 
L 1331 1722 
L 3047 1722 
L 2188 4044 
z
M 1831 4666 
L 2547 4666 
L 4325 0 
L 3669 0 
L 3244 1197 
L 1141 1197 
L 716 0 
L 50 0 
L 1831 4666 
z
" transform="scale(0.015625)"/>
       <path id="DejaVuSans-6e" d="M 3513 2113 
L 3513 0 
L 2938 0 
L 2938 2094 
Q 2938 2591 2744 2837 
Q 2550 3084 2163 3084 
Q 1697 3084 1428 2787 
Q 1159 2491 1159 1978 
L 1159 0 
L 581 0 
L 581 3500 
L 1159 3500 
L 1159 2956 
Q 1366 3272 1645 3428 
Q 1925 3584 2291 3584 
Q 2894 3584 3203 3211 
Q 3513 2838 3513 2113 
z
" transform="scale(0.015625)"/>
       <path id="DejaVuSans-67" d="M 2906 1791 
Q 2906 2416 2648 2759 
Q 2391 3103 1925 3103 
Q 1463 3103 1205 2759 
Q 947 2416 947 1791 
Q 947 1169 1205 825 
Q 1463 481 1925 481 
Q 2391 481 2648 825 
Q 2906 1169 2906 1791 
z
M 3481 434 
Q 3481 -459 3084 -895 
Q 2688 -1331 1869 -1331 
Q 1566 -1331 1297 -1286 
Q 1028 -1241 775 -1147 
L 775 -588 
Q 1028 -725 1275 -790 
Q 1522 -856 1778 -856 
Q 2344 -856 2625 -561 
Q 2906 -266 2906 331 
L 2906 616 
Q 2728 306 2450 153 
Q 2172 0 1784 0 
Q 1141 0 747 490 
Q 353 981 353 1791 
Q 353 2603 747 3093 
Q 1141 3584 1784 3584 
Q 2172 3584 2450 3431 
Q 2728 3278 2906 2969 
L 2906 3500 
L 3481 3500 
L 3481 434 
z
" transform="scale(0.015625)"/>
       <path id="DejaVuSans-6c" d="M 603 4863 
L 1178 4863 
L 1178 0 
L 603 0 
L 603 4863 
z
" transform="scale(0.015625)"/>
       <path id="DejaVuSans-65" d="M 3597 1894 
L 3597 1613 
L 953 1613 
Q 991 1019 1311 708 
Q 1631 397 2203 397 
Q 2534 397 2845 478 
Q 3156 559 3463 722 
L 3463 178 
Q 3153 47 2828 -22 
Q 2503 -91 2169 -91 
Q 1331 -91 842 396 
Q 353 884 353 1716 
Q 353 2575 817 3079 
Q 1281 3584 2069 3584 
Q 2775 3584 3186 3129 
Q 3597 2675 3597 1894 
z
M 3022 2063 
Q 3016 2534 2758 2815 
Q 2500 3097 2075 3097 
Q 1594 3097 1305 2825 
Q 1016 2553 972 2059 
L 3022 2063 
z
" transform="scale(0.015625)"/>
       <path id="DejaVuSans-20" transform="scale(0.015625)"/>
       <path id="DejaVuSans-77" d="M 269 3500 
L 844 3500 
L 1563 769 
L 2278 3500 
L 2956 3500 
L 3675 769 
L 4391 3500 
L 4966 3500 
L 4050 0 
L 3372 0 
L 2619 2869 
L 1863 0 
L 1184 0 
L 269 3500 
z
" transform="scale(0.015625)"/>
       <path id="DejaVuSans-69" d="M 603 3500 
L 1178 3500 
L 1178 0 
L 603 0 
L 603 3500 
z
M 603 4863 
L 1178 4863 
L 1178 4134 
L 603 4134 
L 603 4863 
z
" transform="scale(0.015625)"/>
       <path id="DejaVuSans-74" d="M 1172 4494 
L 1172 3500 
L 2356 3500 
L 2356 3053 
L 1172 3053 
L 1172 1153 
Q 1172 725 1289 603 
Q 1406 481 1766 481 
L 2356 481 
L 2356 0 
L 1766 0 
Q 1100 0 847 248 
Q 594 497 594 1153 
L 594 3053 
L 172 3053 
L 172 3500 
L 594 3500 
L 594 4494 
L 1172 4494 
z
" transform="scale(0.015625)"/>
       <path id="DejaVuSans-68" d="M 3513 2113 
L 3513 0 
L 2938 0 
L 2938 2094 
Q 2938 2591 2744 2837 
Q 2550 3084 2163 3084 
Q 1697 3084 1428 2787 
Q 1159 2491 1159 1978 
L 1159 0 
L 581 0 
L 581 4863 
L 1159 4863 
L 1159 2956 
Q 1366 3272 1645 3428 
Q 1925 3584 2291 3584 
Q 2894 3584 3203 3211 
Q 3513 2838 3513 2113 
z
" transform="scale(0.015625)"/>
       <path id="DejaVuSans-6f" d="M 1959 3097 
Q 1497 3097 1228 2736 
Q 959 2375 959 1747 
Q 959 1119 1226 758 
Q 1494 397 1959 397 
Q 2419 397 2687 759 
Q 2956 1122 2956 1747 
Q 2956 2369 2687 2733 
Q 2419 3097 1959 3097 
z
M 1959 3584 
Q 2709 3584 3137 3096 
Q 3566 2609 3566 1747 
Q 3566 888 3137 398 
Q 2709 -91 1959 -91 
Q 1206 -91 779 398 
Q 353 888 353 1747 
Q 353 2609 779 3096 
Q 1206 3584 1959 3584 
z
" transform="scale(0.015625)"/>
       <path id="DejaVuSans-72" d="M 2631 2963 
Q 2534 3019 2420 3045 
Q 2306 3072 2169 3072 
Q 1681 3072 1420 2755 
Q 1159 2438 1159 1844 
L 1159 0 
L 581 0 
L 581 3500 
L 1159 3500 
L 1159 2956 
Q 1341 3275 1631 3429 
Q 1922 3584 2338 3584 
Q 2397 3584 2469 3576 
Q 2541 3569 2628 3553 
L 2631 2963 
z
" transform="scale(0.015625)"/>
       <path id="DejaVuSans-6d" d="M 3328 2828 
Q 3544 3216 3844 3400 
Q 4144 3584 4550 3584 
Q 5097 3584 5394 3201 
Q 5691 2819 5691 2113 
L 5691 0 
L 5113 0 
L 5113 2094 
Q 5113 2597 4934 2840 
Q 4756 3084 4391 3084 
Q 3944 3084 3684 2787 
Q 3425 2491 3425 1978 
L 3425 0 
L 2847 0 
L 2847 2094 
Q 2847 2600 2669 2842 
Q 2491 3084 2119 3084 
Q 1678 3084 1418 2786 
Q 1159 2488 1159 1978 
L 1159 0 
L 581 0 
L 581 3500 
L 1159 3500 
L 1159 2956 
Q 1356 3278 1631 3431 
Q 1906 3584 2284 3584 
Q 2666 3584 2933 3390 
Q 3200 3197 3328 2828 
z
" transform="scale(0.015625)"/>
       <path id="DejaVuSans-61" d="M 2194 1759 
Q 1497 1759 1228 1600 
Q 959 1441 959 1056 
Q 959 750 1161 570 
Q 1363 391 1709 391 
Q 2188 391 2477 730 
Q 2766 1069 2766 1631 
L 2766 1759 
L 2194 1759 
z
M 3341 1997 
L 3341 0 
L 2766 0 
L 2766 531 
Q 2569 213 2275 61 
Q 1981 -91 1556 -91 
Q 1019 -91 701 211 
Q 384 513 384 1019 
Q 384 1609 779 1909 
Q 1175 2209 1959 2209 
L 2766 2209 
L 2766 2266 
Q 2766 2663 2505 2880 
Q 2244 3097 1772 3097 
Q 1472 3097 1187 3025 
Q 903 2953 641 2809 
L 641 3341 
Q 956 3463 1253 3523 
Q 1550 3584 1831 3584 
Q 2591 3584 2966 3190 
Q 3341 2797 3341 1997 
z
" transform="scale(0.015625)"/>
       <path id="DejaVuSans-28" d="M 1984 4856 
Q 1566 4138 1362 3434 
Q 1159 2731 1159 2009 
Q 1159 1288 1364 580 
Q 1569 -128 1984 -844 
L 1484 -844 
Q 1016 -109 783 600 
Q 550 1309 550 2009 
Q 550 2706 781 3412 
Q 1013 4119 1484 4856 
L 1984 4856 
z
" transform="scale(0.015625)"/>
       <path id="DejaVuSans-64" d="M 2906 2969 
L 2906 4863 
L 3481 4863 
L 3481 0 
L 2906 0 
L 2906 525 
Q 2725 213 2448 61 
Q 2172 -91 1784 -91 
Q 1150 -91 751 415 
Q 353 922 353 1747 
Q 353 2572 751 3078 
Q 1150 3584 1784 3584 
Q 2172 3584 2448 3432 
Q 2725 3281 2906 2969 
z
M 947 1747 
Q 947 1113 1208 752 
Q 1469 391 1925 391 
Q 2381 391 2643 752 
Q 2906 1113 2906 1747 
Q 2906 2381 2643 2742 
Q 2381 3103 1925 3103 
Q 1469 3103 1208 2742 
Q 947 2381 947 1747 
z
" transform="scale(0.015625)"/>
       <path id="DejaVuSans-29" d="M 513 4856 
L 1013 4856 
Q 1481 4119 1714 3412 
Q 1947 2706 1947 2009 
Q 1947 1309 1714 600 
Q 1481 -109 1013 -844 
L 513 -844 
Q 928 -128 1133 580 
Q 1338 1288 1338 2009 
Q 1338 2731 1133 3434 
Q 928 4138 513 4856 
z
" transform="scale(0.015625)"/>
      </defs>
      <use xlink:href="#DejaVuSans-41"/>
      <use xlink:href="#DejaVuSans-6e" x="68.408203"/>
      <use xlink:href="#DejaVuSans-67" x="131.787109"/>
      <use xlink:href="#DejaVuSans-6c" x="195.263672"/>
      <use xlink:href="#DejaVuSans-65" x="223.046875"/>
      <use xlink:href="#DejaVuSans-20" x="284.570312"/>
      <use xlink:href="#DejaVuSans-77" x="316.357422"/>
      <use xlink:href="#DejaVuSans-69" x="398.144531"/>
      <use xlink:href="#DejaVuSans-74" x="425.927734"/>
      <use xlink:href="#DejaVuSans-68" x="465.136719"/>
      <use xlink:href="#DejaVuSans-20" x="528.515625"/>
      <use xlink:href="#DejaVuSans-6e" x="560.302734"/>
      <use xlink:href="#DejaVuSans-6f" x="623.681641"/>
      <use xlink:href="#DejaVuSans-72" x="684.863281"/>
      <use xlink:href="#DejaVuSans-6d" x="724.226562"/>
      <use xlink:href="#DejaVuSans-61" x="821.638672"/>
      <use xlink:href="#DejaVuSans-6c" x="882.917969"/>
      <use xlink:href="#DejaVuSans-20" x="910.701172"/>
      <use xlink:href="#DejaVuSans-28" x="942.488281"/>
      <use xlink:href="#DejaVuSans-72" x="981.501953"/>
      <use xlink:href="#DejaVuSans-61" x="1022.615234"/>
      <use xlink:href="#DejaVuSans-64" x="1083.894531"/>
      <use xlink:href="#DejaVuSans-29" x="1147.371094"/>
     </g>
    </g>
   </g>
   <g id="matplotlib.axis_2">
    <g id="ytick_1">
     <g id="line2d_10">
      <defs>
       <path id="m35861da3da" d="M 0 0 
L -3.5 0 
" style="stroke: #000000; stroke-width: 0.8"/>
      </defs>
      <g>
       <use xlink:href="#m35861da3da" x="43.78125" y="273.312" style="stroke: #000000; stroke-width: 0.8"/>
      </g>
     </g>
     <g id="text_11">
      <!-- 0.0 -->
      <g transform="translate(20.878125 277.111219)scale(0.1 -0.1)">
       <use xlink:href="#DejaVuSans-30"/>
       <use xlink:href="#DejaVuSans-2e" x="63.623047"/>
       <use xlink:href="#DejaVuSans-30" x="95.410156"/>
      </g>
     </g>
    </g>
    <g id="ytick_2">
     <g id="line2d_11">
      <g>
       <use xlink:href="#m35861da3da" x="43.78125" y="227.44601" style="stroke: #000000; stroke-width: 0.8"/>
      </g>
     </g>
     <g id="text_12">
      <!-- 0.2 -->
      <g transform="translate(20.878125 231.245229)scale(0.1 -0.1)">
       <use xlink:href="#DejaVuSans-30"/>
       <use xlink:href="#DejaVuSans-2e" x="63.623047"/>
       <use xlink:href="#DejaVuSans-32" x="95.410156"/>
      </g>
     </g>
    </g>
    <g id="ytick_3">
     <g id="line2d_12">
      <g>
       <use xlink:href="#m35861da3da" x="43.78125" y="181.58002" style="stroke: #000000; stroke-width: 0.8"/>
      </g>
     </g>
     <g id="text_13">
      <!-- 0.4 -->
      <g transform="translate(20.878125 185.379238)scale(0.1 -0.1)">
       <use xlink:href="#DejaVuSans-30"/>
       <use xlink:href="#DejaVuSans-2e" x="63.623047"/>
       <use xlink:href="#DejaVuSans-34" x="95.410156"/>
      </g>
     </g>
    </g>
    <g id="ytick_4">
     <g id="line2d_13">
      <g>
       <use xlink:href="#m35861da3da" x="43.78125" y="135.71403" style="stroke: #000000; stroke-width: 0.8"/>
      </g>
     </g>
     <g id="text_14">
      <!-- 0.6 -->
      <g transform="translate(20.878125 139.513248)scale(0.1 -0.1)">
       <use xlink:href="#DejaVuSans-30"/>
       <use xlink:href="#DejaVuSans-2e" x="63.623047"/>
       <use xlink:href="#DejaVuSans-36" x="95.410156"/>
      </g>
     </g>
    </g>
    <g id="ytick_5">
     <g id="line2d_14">
      <g>
       <use xlink:href="#m35861da3da" x="43.78125" y="89.848039" style="stroke: #000000; stroke-width: 0.8"/>
      </g>
     </g>
     <g id="text_15">
      <!-- 0.8 -->
      <g transform="translate(20.878125 93.647258)scale(0.1 -0.1)">
       <use xlink:href="#DejaVuSans-30"/>
       <use xlink:href="#DejaVuSans-2e" x="63.623047"/>
       <use xlink:href="#DejaVuSans-38" x="95.410156"/>
      </g>
     </g>
    </g>
    <g id="ytick_6">
     <g id="line2d_15">
      <g>
       <use xlink:href="#m35861da3da" x="43.78125" y="43.982049" style="stroke: #000000; stroke-width: 0.8"/>
      </g>
     </g>
     <g id="text_16">
      <!-- 1.0 -->
      <g transform="translate(20.878125 47.781268)scale(0.1 -0.1)">
       <use xlink:href="#DejaVuSans-31"/>
       <use xlink:href="#DejaVuSans-2e" x="63.623047"/>
       <use xlink:href="#DejaVuSans-30" x="95.410156"/>
      </g>
     </g>
    </g>
    <g id="text_17">
     <!-- Probability density -->
     <g transform="translate(14.798438 186.606781)rotate(-90)scale(0.1 -0.1)">
      <defs>
       <path id="DejaVuSans-50" d="M 1259 4147 
L 1259 2394 
L 2053 2394 
Q 2494 2394 2734 2622 
Q 2975 2850 2975 3272 
Q 2975 3691 2734 3919 
Q 2494 4147 2053 4147 
L 1259 4147 
z
M 628 4666 
L 2053 4666 
Q 2838 4666 3239 4311 
Q 3641 3956 3641 3272 
Q 3641 2581 3239 2228 
Q 2838 1875 2053 1875 
L 1259 1875 
L 1259 0 
L 628 0 
L 628 4666 
z
" transform="scale(0.015625)"/>
       <path id="DejaVuSans-62" d="M 3116 1747 
Q 3116 2381 2855 2742 
Q 2594 3103 2138 3103 
Q 1681 3103 1420 2742 
Q 1159 2381 1159 1747 
Q 1159 1113 1420 752 
Q 1681 391 2138 391 
Q 2594 391 2855 752 
Q 3116 1113 3116 1747 
z
M 1159 2969 
Q 1341 3281 1617 3432 
Q 1894 3584 2278 3584 
Q 2916 3584 3314 3078 
Q 3713 2572 3713 1747 
Q 3713 922 3314 415 
Q 2916 -91 2278 -91 
Q 1894 -91 1617 61 
Q 1341 213 1159 525 
L 1159 0 
L 581 0 
L 581 4863 
L 1159 4863 
L 1159 2969 
z
" transform="scale(0.015625)"/>
       <path id="DejaVuSans-79" d="M 2059 -325 
Q 1816 -950 1584 -1140 
Q 1353 -1331 966 -1331 
L 506 -1331 
L 506 -850 
L 844 -850 
Q 1081 -850 1212 -737 
Q 1344 -625 1503 -206 
L 1606 56 
L 191 3500 
L 800 3500 
L 1894 763 
L 2988 3500 
L 3597 3500 
L 2059 -325 
z
" transform="scale(0.015625)"/>
       <path id="DejaVuSans-73" d="M 2834 3397 
L 2834 2853 
Q 2591 2978 2328 3040 
Q 2066 3103 1784 3103 
Q 1356 3103 1142 2972 
Q 928 2841 928 2578 
Q 928 2378 1081 2264 
Q 1234 2150 1697 2047 
L 1894 2003 
Q 2506 1872 2764 1633 
Q 3022 1394 3022 966 
Q 3022 478 2636 193 
Q 2250 -91 1575 -91 
Q 1294 -91 989 -36 
Q 684 19 347 128 
L 347 722 
Q 666 556 975 473 
Q 1284 391 1588 391 
Q 1994 391 2212 530 
Q 2431 669 2431 922 
Q 2431 1156 2273 1281 
Q 2116 1406 1581 1522 
L 1381 1569 
Q 847 1681 609 1914 
Q 372 2147 372 2553 
Q 372 3047 722 3315 
Q 1072 3584 1716 3584 
Q 2034 3584 2315 3537 
Q 2597 3491 2834 3397 
z
" transform="scale(0.015625)"/>
      </defs>
      <use xlink:href="#DejaVuSans-50"/>
      <use xlink:href="#DejaVuSans-72" x="58.552734"/>
      <use xlink:href="#DejaVuSans-6f" x="97.416016"/>
      <use xlink:href="#DejaVuSans-62" x="158.597656"/>
      <use xlink:href="#DejaVuSans-61" x="222.074219"/>
      <use xlink:href="#DejaVuSans-62" x="283.353516"/>
      <use xlink:href="#DejaVuSans-69" x="346.830078"/>
      <use xlink:href="#DejaVuSans-6c" x="374.613281"/>
      <use xlink:href="#DejaVuSans-69" x="402.396484"/>
      <use xlink:href="#DejaVuSans-74" x="430.179688"/>
      <use xlink:href="#DejaVuSans-79" x="469.388672"/>
      <use xlink:href="#DejaVuSans-20" x="528.568359"/>
      <use xlink:href="#DejaVuSans-64" x="560.355469"/>
      <use xlink:href="#DejaVuSans-65" x="623.832031"/>
      <use xlink:href="#DejaVuSans-6e" x="685.355469"/>
      <use xlink:href="#DejaVuSans-73" x="748.734375"/>
      <use xlink:href="#DejaVuSans-69" x="800.833984"/>
      <use xlink:href="#DejaVuSans-74" x="828.617188"/>
      <use xlink:href="#DejaVuSans-79" x="867.826172"/>
     </g>
    </g>
   </g>
   <g id="line2d_16">
    <path d="M 60.013977 273.312 
L 79.837728 229.58918 
L 90.237073 207.194068 
L 99.01152 188.809556 
L 106.811029 172.97487 
L 113.960578 158.959447 
L 120.460169 146.691218 
L 126.63478 135.499461 
L 132.484411 125.349821 
L 138.009063 116.198718 
L 143.208736 107.995556 
L 148.408408 100.210834 
L 153.283101 93.310224 
L 157.832814 87.230654 
L 162.382528 81.51171 
L 166.932241 76.164476 
L 171.156975 71.541089 
L 175.381709 67.254875 
L 179.281463 63.603841 
L 183.181217 60.25141 
L 187.080972 57.202356 
L 190.655746 54.677615 
L 194.230521 52.414468 
L 197.805296 50.415624 
L 201.380071 48.683474 
L 204.629866 47.341971 
L 207.879661 46.223921 
L 211.129456 45.330427 
L 214.379252 44.662375 
L 217.629047 44.220424 
L 220.878842 44.005012 
L 224.128637 44.016351 
L 227.378433 44.25443 
L 230.628228 44.719015 
L 233.878023 45.409645 
L 237.127818 46.325637 
L 240.377614 47.466086 
L 243.627409 48.829865 
L 247.202184 50.58635 
L 250.776958 52.609325 
L 254.351733 54.89637 
L 257.926508 57.444748 
L 261.501283 60.25141 
L 265.401037 63.603841 
L 269.300791 67.254875 
L 273.200546 71.199315 
L 277.425279 75.797033 
L 281.650013 80.724812 
L 286.199727 86.391317 
L 290.74944 92.420074 
L 295.624133 99.268159 
L 300.498826 106.503439 
L 305.698498 114.629693 
L 311.22315 123.703438 
L 316.747802 133.204667 
L 322.597433 143.700544 
L 328.772044 155.229254 
L 335.596614 168.460098 
L 342.746164 182.81026 
L 350.870652 199.638987 
L 359.970079 219.022443 
L 371.019383 243.110326 
L 384.668523 273.312 
L 384.668523 273.312 
" clip-path="url(#pc5b69a0af4)" style="fill: none; stroke: #ff7f0e; stroke-width: 1.5; stroke-linecap: square"/>
   </g>
   <g id="patch_203">
    <path d="M 43.78125 273.312 
L 43.78125 7.2 
" style="fill: none; stroke: #000000; stroke-width: 0.8; stroke-linejoin: miter; stroke-linecap: square"/>
   </g>
   <g id="patch_204">
    <path d="M 400.90125 273.312 
L 400.90125 7.2 
" style="fill: none; stroke: #000000; stroke-width: 0.8; stroke-linejoin: miter; stroke-linecap: square"/>
   </g>
   <g id="patch_205">
    <path d="M 43.78125 273.312 
L 400.90125 273.312 
" style="fill: none; stroke: #000000; stroke-width: 0.8; stroke-linejoin: miter; stroke-linecap: square"/>
   </g>
   <g id="patch_206">
    <path d="M 43.78125 7.2 
L 400.90125 7.2 
" style="fill: none; stroke: #000000; stroke-width: 0.8; stroke-linejoin: miter; stroke-linecap: square"/>
   </g>
  </g>
 </g>
 <defs>
  <clipPath id="pc5b69a0af4">
   <rect x="43.78125" y="7.2" width="357.12" height="266.112"/>
  </clipPath>
 </defs>
</svg>
